<svg id="Title" xmlns="http://www.w3.org/2000/svg" xmlns:xlink="http://www.w3.org/1999/xlink" width="1129.204" height="434" viewBox="0 0 1129.204 434">
  <defs>
    <clipPath id="clip-path">
      <rect id="Rectangle_211" data-name="Rectangle 211" width="1129.204" height="434" fill="none"/>
    </clipPath>
  </defs>
  <path id="Path_1237" data-name="Path 1237" d="M192.067,247.687,255.084,232.3,252.3,250.458,189.28,265.839Zm-26.382-7.118-7.161,46.638,120.569-29.431,7.166-46.638Zm46.638-45.58,36.965-9.025,5.866,9.716-51.786,12.639Zm-20.958-9.2-35.253,52.592,31.821-7.766,4.251-6.158L261.9,207.439l2.459,4.522,32.911-8.033-22.46-38.505Zm-8.592-36.919-18.837,39.548,28.544-6.967L199.43,166.5l2.964-.724.691,13.086,26.05-6.36-.693-13.086,7.331-1.79,2.262-14.713-31.041,7.575,4.011-8.509Zm66.757-16.295-18.988,39.585,28.7-7.006,6.954-14.951,3.276-.8.847,13.047,26.828-6.546-.693-13.088,6.863-1.673,2.26-14.715-32.13,7.842,3.853-8.472Z" transform="translate(182.164 146.793)" fill="#d23f45"/>
  <path id="Path_1238" data-name="Path 1238" d="M360.81,242.422l-99.516,24.293-12.7-8.2-3.207,12.08-21.368,5.218,13.857-53.1,21.06-5.14-5.885,22.679,6.082,4.388,5.361-34.9-30.107,7.35,2.284-14.869,70.036-17.1L304.421,200l-14.041,3.428-2.043,13.3,14.2-3.465-2.165,14.085-14.193,3.465-2.524,16.434,85.323-20.826ZM241.686,194.976l8.75-56.969,62.237-15.192-8.75,56.969Zm40.029-29.957-11.543,2.817-1.008,6.574,11.543-2.817Zm3.2-20.817-11.543,2.819-1.01,6.572,11.543-2.817Zm33.868,91.308-25.58,6.243,15.545-23.979,26.048-6.36ZM361.729,125l-3.352,9.1,19.342-4.722-10.889,70.9-61.611,15.038,10.889-70.9,15.129-3.692,3.2-9.066-19.81,4.836,2.26-14.711,67.071-16.371-2.26,14.711ZM344.821,186.22,333.434,189l-.914,5.946,11.387-2.78Zm2.834-18.466-11.387,2.78-.888,5.792,11.387-2.782Zm-3.606,61.587-7.073-18.46,25.582-6.245,7.075,18.462Zm6.371-79.587-11.387,2.78-.891,5.792,11.387-2.78Z" transform="translate(261.398 123.009)" fill="#d23f45"/>
  <path id="Path_1239" data-name="Path 1239" d="M349.566,142.976l-3.677,23.948,10.379-7.957-2.6,16.9-10.379,7.957-9.424,61.351-33.223,8.111-2.709-13.651,10.137-2.475,4.616-30.05-11.207,8.462,2.622-17.062,11.181-8.3,6.2-40.382L311.351,152.3l2.284-14.867,10.137-2.475,3.2-20.817,28.078-6.852-3.2,20.815,9.669-2.36-2.284,14.867Zm-2.594,99L364.065,130.7l29.008-7.081,4.063-26.451L424.9,90.392l-4.061,26.451,28.544-6.966L432.291,221.155Zm36.46-55.6-7.328,1.788-5.218,33.964,7.331-1.788Zm7.309-47.578-7.331,1.788-5,32.555,7.328-1.788Zm27.632,39.049L411.2,179.6l-5.216,33.964,7.174-1.751Zm7.309-47.578-7.174,1.751-5,32.555,7.175-1.753Z" transform="translate(347.658 105.477)" fill="#d23f45"/>
  <path id="Path_1240" data-name="Path 1240" d="M412.9,229.593l-5.952-8.189-9.025,11.844-29.946,7.309L394.735,204.2,382.811,187.98l8.007-52.116-6.4,1.56,2.405-15.649,6.394-1.56L396.2,100.8l24.646-6.013L417.867,114.2l8.733-2.134,2.982-19.409,24.956-6.091-2.979,19.409,6.395-1.56-2.4,15.651-6.395,1.56-8.173,53.212-16.5,22.406L442.385,222.4ZM424.2,127.717l-8.733,2.132-6.9,44.917,3.872,5.079,4.691-6.117Zm74.161,23.474-9.181,59.784L446.593,221.37l-4.147-14.05L461.79,202.6l6.778-44.137-21.528,5.255,2.5-16.275,21.528-5.255,2.6-16.906,14.8-30.878-28.078,6.854,2.429-15.807,61.767-15.077-1.972,12.834-19.951,39.968-1.8,11.738,20.592-5.025-2.5,16.278Z" transform="translate(429.389 82.117)" fill="#d23f45"/>
  <path id="Path_1241" data-name="Path 1241" d="M482.825,134.089l-12.141,79.039-26.2,6.394,9.326-60.725L443.2,161.387l29.914-52.044-19.5,4.761,2.477-16.119,9.359-2.284-1.278-14.15,28.386-6.927,1.122,14.187,9.361-2.286-2.381,15.5ZM494.554,149.6l-2.6,30.614-11.073,2.7,4.017-49.637,11.233-2.741-.42,5.675L588.2,113.64l-2.091,13.615ZM484.1,209.852l2.115-13.773,16.689-4.074-1.233-8.585,25.268-6.167,1.389,8.546,9.359-2.284,4.7-10.033,24.958-6.093-4.384,9.957,16.377-4-2.115,13.775Zm9.32-27.43,4.542-29.58,82.047-20.026-4.544,29.58Zm6.132-51.658,7.883-51.338,19.654-4.8,1.346-8.763,21.682-5.292-1.346,8.763,5.3-1.294,1.346-8.763,21.992-5.37-1.346,8.763,16.845-4.111L585.026,109.9Zm51.667,20.377-28.388,6.93-1.057,6.884,28.388-6.928ZM530.81,104.149l-5.458,1.333-1.01,6.574,5.458-1.333Zm2.763-18-5.456,1.335-.986,6.414,5.458-1.333Zm15.489,13.543-5.616,1.372-1.01,6.574,5.617-1.372Zm2.763-18-5.617,1.369-.984,6.416,5.617-1.369Zm15.487,13.543L561.7,96.611l-1.01,6.574,5.612-1.369Zm2.763-18-5.614,1.369-.984,6.416,5.612-1.369Z" transform="translate(517.16 62.906)" fill="#d23f45"/>
  <g id="Group_185" data-name="Group 185">
    <g id="Group_184" data-name="Group 184" clip-path="url(#clip-path)">
      <path id="Path_1242" data-name="Path 1242" d="M78.53,203.023,0,222.194a74.479,74.479,0,0,1,11.565-23.957q8.425-11.955,29.4-30.542,12.816-11.379,16.713-16.613t4.514-9.233q.663-4.32-2.05-6.6t-7.53-1.112a17.228,17.228,0,0,0-8.678,5.161q-3.666,3.933-5.989,12.2l-25.89,4.271Q15.3,144.3,20.371,137.07a46.4,46.4,0,0,1,13.066-12.375q8-5.145,21.235-8.381,13.817-3.371,21.012-2.087t10.59,6.758q3.4,5.467,2.152,13.591-1.326,8.639-7.58,17.74t-21,21.758q-8.743,7.407-11.751,10.254T40.945,191.6l40.872-9.978Z" transform="translate(0 132.876)" fill="#fff"/>
      <path id="Path_1243" data-name="Path 1243" d="M45.476,163.932q4.141-26.952,15.467-40.081T92.06,105.892q9.51-2.324,15.255-1.456a17.494,17.494,0,0,1,9.023,3.69,18.044,18.044,0,0,1,4.854,6.451,29.086,29.086,0,0,1,2.076,8.832,84.759,84.759,0,0,1-.75,21.407q-3.952,25.73-14.464,39.773T76.341,203.811q-11.89,2.9-18.631.888A17.2,17.2,0,0,1,47.4,196.478q-2.6-4.394-3.105-12.99a93.6,93.6,0,0,1,1.177-19.556m25.953-6.273q-2.773,18.056-.6,23.885t8.206,4.36a15.085,15.085,0,0,0,7.339-4.492,28.043,28.043,0,0,0,5.666-9.918q2.314-6.4,4.284-19.227,2.893-18.829.706-24.533t-8.551-4.15q-6.488,1.586-10.395,8.9t-6.652,25.177" transform="translate(51.554 121.589)" fill="#fff"/>
      <path id="Path_1244" data-name="Path 1244" d="M159.556,183.246l-78.53,19.168A74.469,74.469,0,0,1,92.591,178.46q8.425-11.955,29.4-30.542,12.823-11.383,16.715-16.616t4.514-9.233q.66-4.316-2.05-6.6t-7.53-1.112a17.286,17.286,0,0,0-8.678,5.162q-3.666,3.936-5.989,12.2l-25.89,4.273q3.244-11.464,8.314-18.691a46.354,46.354,0,0,1,13.066-12.377q7.993-5.142,21.233-8.379,13.817-3.371,21.012-2.087t10.59,6.758q3.4,5.464,2.152,13.591-1.326,8.639-7.58,17.74t-21,21.755q-8.743,7.411-11.751,10.256t-7.146,7.266l40.872-9.976Z" transform="translate(94.548 109.798)" fill="#fff"/>
      <path id="Path_1245" data-name="Path 1245" d="M170.119,166.012,122.435,177.65l3.318-21.6,56.419-68.51,22.813-5.569-8.923,58.1,11.825-2.886-3.127,20.373-11.825,2.886-2.715,17.667-22.813,5.571Zm3.129-20.373,4.57-29.749-29.766,35.9Z" transform="translate(142.867 95.654)" fill="#fff"/>
      <path id="Path_1246" data-name="Path 1246" d="M247.043,163.339l-33.576,7.883,12.254-49.578-12.65,2.971-8.865,35.873-16.039,16.676-23.493,5.517,23.14-24.395,7.279-29.448L178.639,132.7l2.674-10.815,82.56-19.387L261.2,113.315l-17.027,4-9.58,38.763,19.309-4.535ZM190.077,98.747l2.646-10.707,75.711-17.779-2.646,10.707Z" transform="translate(192.154 81.986)" fill="#fff"/>
      <path id="Path_1247" data-name="Path 1247" d="M208.71,172.514l2.6-10.492,85.416-20.059-2.6,10.494Zm10.332-23.3,17.651-71.425,75.62-17.755-17.656,71.425Zm64.866-44.586-38.713,9.092-5.11,20.666,38.713-9.092Zm7.359-29.769-38.713,9.09-4.819,19.489,38.713-9.09Z" transform="translate(243.539 70.049)" fill="#fff"/>
      <path id="Path_1248" data-name="Path 1248" d="M334.924,141.166l-50.6,11.881L275.378,149l-4.607,7.032-17.976,4.221,12.39-18.947,3.679-14.882-6.852,1.608,2.41-9.744,11.931-20.354-8.845,2.078,2.436-9.851,25.108-5.9L292.3,95.393l-10.676,18.546,6.468-1.519-6.564,26.555,8.533,3.545,51.173-12.015Zm-56.3-56.075-2.373-18.308,18.356-4.31L296.893,80.8ZM320.475,126.4l-1.772,7.175-16.074,3.775,1.773-7.175-20.358,4.78,2.384-9.636,20.356-4.78,1.112-4.5L289.346,120.4l9.924-40.154,18.548-4.353,1.034-4.178-20.644,4.847,2.41-9.744,20.642-4.847,1.721-6.96,16.074-3.775-1.72,6.96L358.162,53.3l-2.407,9.744-20.828,4.891-1.034,4.176,18.546-4.353-9.924,40.152-18.546,4.355-1.112,4.5,21.3-5L341.78,121.4Zm-8.717-25.994-5.233,1.229-1.482,6,5.233-1.226Zm3.653-14.774-5.233,1.226-1.482,6,5.233-1.229Zm17.625,9.879-5.231,1.229-1.508,6.1,5.231-1.226Zm3.679-14.882-5.231,1.226-1.482,6,5.231-1.226Z" transform="translate(294.981 59.782)" fill="#fff"/>
      <path id="Path_1249" data-name="Path 1249" d="M324.007,93.67l3.707-.871L314.323,146.98l-15.981,3.753,12.544-50.755-4.182.984L324.4,56.56l15.788-3.708Zm12.945,33.171-3.89,15.74L317.651,146.2,340.572,53.47l30.343-7.127L362.1,82l-14.932,3.508L344.52,96.214l15.027-3.53-2.355,9.532-15.027,3.53-2.778,11.242,15.027-3.53-2.436,9.853Zm29.3,7.944L364.69,128.8l-4.709,7.461L344.475,139.9l16.265-25.2L357.61,103.43l12.08-2.836,3.04-5.051L359.89,98.556l2.488-10.065L390.436,81.9,387.843,92.4l-11.859,18.618,5.588,20.176Zm-9.463-75.544-3.328.782-3.812,15.42,3.331-.782Zm7.3,22.291,2.488-10.065,12.271-2.882,3.812-15.42L370.4,56.047l2.514-10.171,27.775-6.522-8.815,35.656Z" transform="translate(348.129 45.92)" fill="#fff"/>
      <path id="Path_1250" data-name="Path 1250" d="M340.487,139.824l2.54-10.28,2.535-1.2,12.785-51.717L367,74.592l-12.2,49.366,2.945-1.4L370.42,71.268l9.1-17.974-17.027,4,2.49-10.065,32.245-7.573-3.255,13.172L384.91,70.284l-2.728,11.032,5.042-1.183L384.711,90.3l-5.042,1.185-5.82,23.558,5.692-2.752-2.592,10.494Zm47.177-11.079L372.539,132.3l7.318-14.024,7.359-29.769,14.171-3.328L393.4,117.514Zm34.165-51.6-.875-6.249-5.214,7.679-27.87,6.544,2.436-9.851,12.971-21.3-8.466,1.989,2.542-10.28,15.885-3.731-.366-7.582,17.214-4.041.178,7.625,15.885-3.729-2.54,10.28-23.021,5.4-12.7,20.936L420.822,67.8l-1.075-13.768,16.167-3.794,1.8,23.179Zm-28.341,49.422L403.86,84.6l12.176-2.86-10.373,41.975Zm30.13-6.269-15.79,3.708,10.583-42.831,14.364-3.374-8.126,32.874,4.568-1.073Z" transform="translate(397.307 35.386)" fill="#fff"/>
      <path id="Path_1251" data-name="Path 1251" d="M466.4,112.183l-52.126,12.241-6.984-4.011-4.622,6.735-18.356,4.31,12.757-18.629,3.866-15.634-7.229,1.7,2.275-9.209,12.3-20.033-8.75,2.056,2.49-10.067,24.538-5.762L423.41,68.62l-9.279,15.8,5.8-1.363-6.8,27.517,5.575,3.532L434.5,110.4l1.272-5.14L415.13,110.1l2.355-9.528,20.642-4.845,1.031-4.178L420.8,95.86l8.522-34.479,18.36-4.31L448.686,53l-18.548,4.355,2.039-8.245,18.546-4.355,1.244-5.034,16.646-3.909-1.244,5.034,17.407-4.087L482.739,45,465.33,49.092l-1,4.069,18.165-4.267-8.522,34.479L455.8,87.641l-1.031,4.178,20.546-4.826-2.355,9.53-20.546,4.823-1.27,5.14,21.4-5.025Zm-55.3-56.1-3.183-19.023L425.9,32.834l3.469,18.956ZM471.93,37.254l1.3-5.248-24.445,5.74-1.3,5.248-16.741,3.931,3.705-14.993,56.974-13.378-3.705,14.993ZM442.439,78.271l-5.422,1.272-1.112,4.5,5.422-1.272Zm3.1-12.527-5.422,1.272-1.086,4.39,5.422-1.272ZM464.888,73l-5.8,1.363-1.112,4.5,5.8-1.363Zm3.1-12.527-5.8,1.363-1.086,4.39,5.8-1.363Z" transform="translate(448.452 21.65)" fill="#fff"/>
      <path id="Path_1252" data-name="Path 1252" d="M469.989,62.438l-1.326,5.357L462.6,72.748l-10.427,42.189-20.828,4.891-2.392-8.815,8.18-1.922,4.9-19.814-8.041,6.429,3.148-12.743,8.069-6.531,6.722-27.2L444.8,50.908l2.594-10.494,7.133-1.675,3.415-13.816,17.5-4.108-3.415,13.816,4.852-1.14-2.594,10.494-4.852,1.138-3.6,14.564,4.587-3.7.873-3.534L479,50.644l3.2-12.958-5.135,1.2,2.54-10.28,5.135-1.2,2.3-9.318,16.741-3.931-2.3,9.318,7.038-1.653,2.3-9.318,16.739-3.931-2.3,9.318,5.612-1.32-2.54,10.282-5.61,1.317-3.2,12.958,7.8-1.833-2.54,10.278Zm-9.825,50.623,11.541-46.685,48.224-11.324-11.539,46.685ZM495.63,87.386l-13.983,3.285-1.985,8.03,13.983-3.285Zm4.5-18.2-13.981,3.283-1.959,7.926,13.981-3.285Zm5.851-37.08-7.038,1.653-3.2,12.958,7.038-1.655Z" transform="translate(500.539 10.005)" fill="#fff"/>
      <path id="Path_1253" data-name="Path 1253" d="M554.86,88.857,510.727,99.219l9.632-38.976-3.881,1.92-9.367,37.905-13.79,3.239-1.06-9.133,4.377-1.027,9.844-39.834-3.521.828-8.546,34.586-7.183,16.009-15.313,3.6,8.59-19.164,13.682-55.362-3.045.717,2.407-9.744,9.038-2.121L502.48,12.6l18.642-4.377.11,10.063,7.515-1.766L526.79,24.44,538.242,4.2,556.125,0l-5.083,8.962,27.491-6.455-2.462,9.955-31.2,7.328-4.735,8.271-17.69,4.156,3.224-5.8-16.835,3.957L505.5,43.862,521.958,40,519.1,51.561l3.855-1.812,3.809-15.42,14.553-3.417-2.726,11.029,3.133-1.441,4.42-17.883,14.174-3.328-3.361,13.6L571.252,25.8,560.426,69.6l-10.368,2.436-.75-8.2-3.283,13.281-14.174,3.328,7.3-29.554L536,52.436l-8.23,33.3,33.767-7.929Zm2.4-47.065-2.9,1.588L549.546,62.87l2.661-.626Z" transform="translate(550.671)" fill="#fff"/>
    </g>
  </g>
</svg>
