<svg xmlns="http://www.w3.org/2000/svg" xmlns:xlink="http://www.w3.org/1999/xlink" width="1416.443" height="984.82" viewBox="0 0 1416.443 984.82">
  <defs>
    <clipPath id="clip-path">
      <rect id="Rectangle_77" data-name="Rectangle 77" width="1416.443" height="984.82" fill="none"/>
    </clipPath>
  </defs>
  <g id="road" transform="translate(0 0.001)">
    <g id="Group_58" data-name="Group 58" transform="translate(0 -0.001)" clip-path="url(#clip-path)">
      <path id="Path_682" data-name="Path 682" d="M1289.222,186.526c-182.908-38.07-345.4-48.282-103-88.622a94.374,94.374,0,0,0,16.894-5.506H1086.119c-442.666,53.981,39.625,98.4,112.416,141.372.8.47,3.409,2.312,3.06,2.074,4.206,3.5-4.46,7.965-10.517,10.739C1042.763,314.31,442.767,358.72,283.739,696.211c-34.54,73.284-45.025,155.1-39.168,240.594h994.07C1009.9,798,854.22,672.107,854.056,583.517c-.514-216.449,964.321-286.788,435.167-396.991" transform="translate(148.155 58.017)" fill="#262727"/>
      <path id="Path_683" data-name="Path 683" d="M1285.82,174.762c-182.683-38.024-348.2-48.783-100.472-82.365H999.481c-290.685,48.747,128.217,89.8,195.651,129.609.8.472,3.409,2.312,3.06,2.074,4.206,3.5-4.46,7.965-10.519,10.739C1039.36,302.547,439.365,346.956,280.337,684.445c-36.123,76.644-45.983,162.608-38.305,252.358h1012.71C1015.387,793.36,850.822,662.836,850.653,571.751c-.513-216.447,964.321-286.787,435.167-396.99" transform="translate(146.056 58.017)" fill="#505151"/>
      <path id="Path_684" data-name="Path 684" d="M471.144,411.3l-18.155,2.009c-16.3,62.263,3.649,126.715,32.886,186.033L507.9,591.6c-31-57.44-49.807-119.475-36.757-180.3" transform="translate(272.574 258.251)" fill="#fff"/>
      <path id="Path_685" data-name="Path 685" d="M667.4,280.972c-66.352,25.973-116.646,54.22-155.886,82.532l12.529,1.534c44.014-32.4,95.727-59.185,151.97-81.578Z" transform="translate(311.815 176.42)" fill="#fff"/>
      <path id="Path_686" data-name="Path 686" d="M842.351,223.9c-86.775,24.158-106.875,30.256-137.68,39.449l7.185,2.414c42.619-12.914,53.822-16.191,137.437-39.777Z" transform="translate(429.563 140.588)" fill="#fff"/>
      <path id="Path_687" data-name="Path 687" d="M931.389,183.722c-11.5,12.024-51.715,26.028-70.814,32.178l7.306,1.625c19.3-6.264,60.171-20.769,71.6-33.044Z" transform="translate(524.602 115.358)" fill="#fff"/>
      <path id="Path_688" data-name="Path 688" d="M845.032,149.711l-4.94.877c28.685,6.626,53.015,12.619,79.037,22.5.354.132,1.365.516,1.692.672l6.5-.6c-6.456-2.2-18.649-8.738-82.289-23.45" transform="translate(512.115 94.003)" fill="#fff"/>
      <path id="Path_689" data-name="Path 689" d="M744.759,129.185l-4.83.674c23.243,5.39,49.117,10.567,75.476,15.81l4.578-.832c-9.864-1.95-56.717-11.171-75.223-15.652" transform="translate(451.057 81.115)" fill="#fff"/>
      <path id="Path_690" data-name="Path 690" d="M698.662,110.184l-.1.171c-4.919,7.907,10.458,13.876,13.958,15.714l5.313-.391c-8.779-3.979-17.612-8.725-13.9-15.475Z" transform="translate(425.25 69.185)" fill="#fff"/>
      <path id="Path_691" data-name="Path 691" d="M765.524,95.168c-31.629,5.395-46.892,9.966-49.65,10.671l4.388.3c2.752-1.174,25.433-6.57,48.9-10.573Z" transform="translate(436.393 59.756)" fill="#fff"/>
      <path id="Path_692" data-name="Path 692" d="M1204.333,225.247a7.324,7.324,0,0,0-1.727-1.934l-.011-.01c-39.519-38.638-506.266-81.346-203.9-130.907h-6.007c-9.69,1.587-19,3.239-27.312,4.915C732.9,144.6,1124.339,181.83,1191.865,221.513c.747.44,3.5,2.369,3.469,2.346,6.593,5.533-13.674,13.45-22.9,16.852-178.4,65.955-738.979,121.04-881.243,440.536C259.082,753.31,249.06,837.167,262.83,936.8H292.2c-18.229-101-10.61-185.493,20.11-258.7,90.264-215.264,369.012-308,673.6-384.176,98.032-24.479,225.821-53.759,218.424-68.677" transform="translate(156.55 58.017)" fill="#fff"/>
      <path id="Path_693" data-name="Path 693" d="M1190.417,213.811C1057.95,147.1,627.382,137.94,959.6,92.4h-7.232c-265.417,34.988-38.609,50.943,128.19,89.006,436.271,99.506-378.268,164.658-472.81,357.5C550.91,654.715,781.715,823.232,960.916,936.8h37.636C790.817,808.3,633.061,684.009,616.593,591.514c-37.8-212.659,749.284-281.95,573.824-377.7" transform="translate(365.126 58.017)" fill="#fff"/>
    </g>
  </g>
</svg>
