<svg xmlns="http://www.w3.org/2000/svg" xmlns:xlink="http://www.w3.org/1999/xlink" width="1921" height="1080" viewBox="0 0 1921 1080">
  <defs>
    <clipPath id="clip-path">
      <rect id="Rectangle_3" data-name="Rectangle 3" width="1921" height="1080" fill="#fff" stroke="#707070" stroke-width="1"/>
    </clipPath>
    <clipPath id="clip-path-2">
      <rect id="Rectangle_2" data-name="Rectangle 2" width="1920.935" height="1361.227" fill="none"/>
    </clipPath>
  </defs>
  <g id="bg_map" clip-path="url(#clip-path)">
    <g id="Group_3" data-name="Group 3" transform="translate(0 -119.531)">
      <rect id="Rectangle_1" data-name="Rectangle 1" width="1920.935" height="1361.225" transform="translate(0.002 0.002)" fill="#c8d0c0"/>
      <g id="Group_2" data-name="Group 2">
        <g id="Group_1" data-name="Group 1" clip-path="url(#clip-path-2)">
          <path id="Path_1" data-name="Path 1" d="M159.613,24.949c-16.444,79.905,48.348,141.673,48.348,141.673C302.3,267.049,439.306,361.849,567.12,402.88c91.822,29.478,187.777,41.454,280.842,66.141s186.182,64.25,252.562,137.847c80.482,89.234,111.449,217.643,115.356,341.189,1.772,56.062-1.347,112.489,5.929,168.047s26.308,111.682,65.051,149.769c50.228,49.377,123.179,59.914,191.159,68.124l82.59,9.976,405.516,39.372" transform="translate(66.74 -107.175)" fill="none" stroke="#f2eade" stroke-miterlimit="10" stroke-width="62.601"/>
          <path id="Path_2" data-name="Path 2" d="M539.465,351.249c40.375-73.825,98.47-148.617,170.025-187.434,42.413-23.007,89.482-34.7,136.591-42.066a820.8,820.8,0,0,1,247.364-.934s214.037,32.211,427.985,179.249" transform="translate(523.265 -3.399)" fill="none" stroke="#f2eade" stroke-miterlimit="10" stroke-width="10.835"/>
          <path id="Path_3" data-name="Path 3" d="M669.685,123.127c18.8,69.883,50.989,136.818,99.791,187.731s115.208,84.634,183.585,84.16c0,0,230.63,44.251,351.118-147.832" transform="translate(678.675 9.996)" fill="none" stroke="#f2eade" stroke-miterlimit="10" stroke-width="10.835"/>
          <path id="Path_4" data-name="Path 4" d="M667.9,418.937a1232.041,1232.041,0,0,1,303.314,81.87s211.264,87.7,366.31,235.03" transform="translate(676.546 363.029)" fill="none" stroke="#f2eade" stroke-miterlimit="10" stroke-width="10.835"/>
          <path id="Path_5" data-name="Path 5" d="M923,247.59c-63.77,327.594-269.741,620.693-547.173,778.641,0,0-147.24,85.057-375.11,115.689" transform="translate(-119.698 158.536)" fill="none" stroke="#f2eade" stroke-miterlimit="10" stroke-width="10.835"/>
          <path id="Path_6" data-name="Path 6" d="M372.281,396.506C429.039,449.322,487.617,504.757,517,578.61c14.793,37.185,21.437,77.411,26.433,117.435C556.166,798.034,558.23,905.5,519.312,999.7c-14.163,34.281-33.408,65.9-53.441,96.7" transform="translate(323.739 336.259)" fill="none" stroke="#f2eade" stroke-miterlimit="10" stroke-width="10.835"/>
          <path id="Path_7" data-name="Path 7" d="M662.431,475.633c-1.417,3.431-6.282,1.119-8.831-1.47C611.947,431.85,552.691,413.35,495.082,412.4S380.74,426.471,325.408,443.549q-23.117,7.136-46.093,14.773s-317.616,93.1-172.036,446.5" transform="translate(-38.097 355.177)" fill="none" stroke="#f2eade" stroke-miterlimit="10" stroke-width="10.835"/>
          <path id="Path_8" data-name="Path 8" d="M769.648,660.177c-176.7,17.942-358.633-28.429-508.465-129.6,0,0-280.641-198.492-113.849-505.627" transform="translate(-7.901 -107.176)" fill="none" stroke="#f2eade" stroke-miterlimit="10" stroke-width="10.835"/>
          <path id="Path_9" data-name="Path 9" d="M444.512,516.537c116.358-39.445,246.576-48.909,366.9-26.668" transform="translate(409.943 433.627)" fill="none" stroke="#f2eade" stroke-miterlimit="10" stroke-width="10.835"/>
          <path id="Path_10" data-name="Path 10" d="M595.236,150.574c16.411,37.929,54.174,61.434,92.7,69.581s78.3,3.259,117.3-1.656" transform="translate(589.824 42.752)" fill="none" stroke="#f2eade" stroke-miterlimit="10" stroke-width="2.408"/>
          <path id="Path_11" data-name="Path 11" d="M707.712,291.358a594.141,594.141,0,0,0,61.91-29.324c13.893-7.589,27.729-15.92,38.578-27.866,11.527-12.7,19.076-28.8,25.979-44.849q15.118-35.155,27.24-71.653" transform="translate(724.058 3.478)" fill="none" stroke="#f2eade" stroke-miterlimit="10" stroke-width="2.408"/>
          <path id="Path_12" data-name="Path 12" d="M638.35,128.3a248.16,248.16,0,0,1,14.086,118.22" transform="translate(641.278 16.17)" fill="none" stroke="#f2eade" stroke-miterlimit="10" stroke-width="2.408"/>
          <path id="Path_13" data-name="Path 13" d="M576.755,284.076a822.128,822.128,0,0,0,56.876-82.945" transform="translate(567.768 103.089)" fill="none" stroke="#f2eade" stroke-miterlimit="10" stroke-width="2.408"/>
          <path id="Path_14" data-name="Path 14" d="M612.246,253.16q16.671-21.357,31.272-44.422a105.3,105.3,0,0,0,6.536-11.459,59.944,59.944,0,0,0,4.918-16.052" transform="translate(610.125 79.336)" fill="none" stroke="#f2eade" stroke-miterlimit="10" stroke-width="2.408"/>
          <path id="Path_15" data-name="Path 15" d="M718.058,279.888c-3.141-21.877-22.5-34.321-41.956-32-14.016,1.671-22.818,13.58-23.775,28.868-.945,15.054,7.418,30.21,19.96,36.679a31.564,31.564,0,0,0,32.371-1.93C714.129,304.83,719.8,292.009,718.058,279.888Z" transform="translate(657.872 158.562)" fill="none" stroke="#f2eade" stroke-miterlimit="10" stroke-width="2.408"/>
          <path id="Path_16" data-name="Path 16" d="M580.65,165.958c24.352,50.833,86.871,136.823,163.1,189.288" transform="translate(572.417 61.112)" fill="none" stroke="#f2eade" stroke-miterlimit="10" stroke-width="2.408"/>
          <path id="Path_17" data-name="Path 17" d="M670.142,322.4q24.159-68.942,53.9-135.476" transform="translate(679.221 86.14)" fill="none" stroke="#f2eade" stroke-miterlimit="10" stroke-width="2.408"/>
          <path id="Path_18" data-name="Path 18" d="M682.793,296.119c52.787.171,105.331-22.391,143.2-61.487" transform="translate(694.319 143.071)" fill="none" stroke="#f2eade" stroke-miterlimit="10" stroke-width="2.408"/>
          <path id="Path_19" data-name="Path 19" d="M679.355,275.514C716,342.778,736.7,418.4,753.809,493.979c8.622,38.087,16.455,76.714,16.863,115.886" transform="translate(690.216 191.861)" fill="none" stroke="#f2eade" stroke-miterlimit="10" stroke-width="2.408"/>
          <path id="Path_20" data-name="Path 20" d="M626.021,316.182a243.819,243.819,0,0,0,60.743-44.351" transform="translate(626.564 187.466)" fill="none" stroke="#f2eade" stroke-miterlimit="10" stroke-width="2.408"/>
          <path id="Path_21" data-name="Path 21" d="M642.825,283.351q18.859,30.951,37.716,61.9c4.264,7,8.618,14.106,14.621,19.469s14.018,8.82,21.717,7.221c4.121-.855,7.866-3.071,11.529-5.256q14.48-8.637,28.962-17.271" transform="translate(646.619 201.214)" fill="none" stroke="#f2eade" stroke-miterlimit="10" stroke-width="2.408"/>
          <path id="Path_22" data-name="Path 22" d="M708.853,485.332c27.7-11.2,47.328-37.155,65.564-61.989,10.015-13.639,20.048-27.306,28.763-41.919,24.6-41.25,38.006-88.786,49.734-136.009" transform="translate(725.42 155.94)" fill="none" stroke="#f2eade" stroke-miterlimit="10" stroke-width="2.408"/>
          <path id="Path_23" data-name="Path 23" d="M724.6,253.11a419.349,419.349,0,0,0,61.629,111.857" transform="translate(744.209 165.123)" fill="none" stroke="#f2eade" stroke-miterlimit="10" stroke-width="2.408"/>
          <path id="Path_24" data-name="Path 24" d="M741.657,322.135a707.1,707.1,0,0,1,61.1,259" transform="translate(764.57 247.501)" fill="none" stroke="#f2eade" stroke-miterlimit="10" stroke-width="2.408"/>
          <path id="Path_25" data-name="Path 25" d="M763.57,496.986c10.358-5.966,20.107-13.042,29.835-20.105L837.044,445.2S990.78,297.246,1216.3,294.75" transform="translate(790.722 214.819)" fill="none" stroke="#f2eade" stroke-miterlimit="10" stroke-width="2.408"/>
          <path id="Path_26" data-name="Path 26" d="M715.589,408.3c9.342-1.57,17.975-6.111,26.442-10.6l62.684-33.2" transform="translate(733.459 298.065)" fill="none" stroke="#f2eade" stroke-miterlimit="10" stroke-width="2.408"/>
          <path id="Path_27" data-name="Path 27" d="M657.937,382.313a602.894,602.894,0,0,0,103.787-39.447" transform="translate(664.655 272.242)" fill="none" stroke="#f2eade" stroke-miterlimit="10" stroke-width="2.408"/>
          <path id="Path_28" data-name="Path 28" d="M664.218,414.859c17.8-3.856,35.646-7.719,53-13.457,19.515-6.453,38.552-15.306,58.848-17.85" transform="translate(672.151 320.799)" fill="none" stroke="#f2eade" stroke-miterlimit="10" stroke-width="2.408"/>
          <path id="Path_29" data-name="Path 29" d="M750.408,620.136q.194,13.022-.4,26.084c-.232,5.067-.513,10.336-2.818,14.777-5.177,9.971-17.765,11.638-28.469,12.13l-119.966,5.517c-41.656,1.917-51.022-18.238-70.081-52.592q-24.212-43.631-48.42-87.266c-3.5-6.311-7.054-12.753-8.565-19.9-3.841-18.151,6.243-36.455,18.515-49.721,18.307-19.794,42.75-35.88,53.268-62.432,5.611-14.161,5.378-32.048-4.4-43.36-5.4-6.236-12.943-9.763-19.478-14.617S507.062,336.53,507.6,328.077c.338-5.354,3.24-10.1,6.216-14.433a192.2,192.2,0,0,1,20.671-25.231c2.575-2.647,5.365-5.3,8.822-6.3,4.7-1.366,9.647.572,14.126,2.617,40.59,18.528,76.929,45.146,105.16,81.48,55.777,71.787,86.455,161.863,87.817,253.929" transform="translate(441.388 199.189)" fill="#84a895"/>
          <path id="Path_30" data-name="Path 30" d="M552.763,362.806c-2.836,10.875-12.378,17.975-21.261,24.154l-33.847,23.544c-2.378,1.654-4.832,3.343-7.622,3.92-3.382.7-6.865-.312-10.094-1.588-13.349-5.273-25.922-17.335-26.056-32.472-.079-8.686,3.909-16.773,8.046-24.266q5.445-9.857,11.483-19.329c12.268-19.252,27.51-26.681,47.808-18.418,16.341,6.653,37.24,22.606,31.544,44.455" transform="translate(421.125 239.003)" fill="#7da6b4"/>
          <path id="Path_31" data-name="Path 31" d="M660.384,290.521c6.076,10.761,20.974,14.832,31.608,10.189,14.152-6.179,17.762-28.776,6.429-39.7-6.712-6.473-25.288-12.189-34.04-7.545-10.564,5.6-9.149,27.931-4,37.058" transform="translate(662.878 163.527)" fill="#84a895"/>
          <path id="Path_32" data-name="Path 32" d="M686.742,710.824c39.675-30.653,69.447-74.332,89.493-121.914s30.781-99.076,37.012-150.789" transform="translate(699.032 385.925)" fill="none" stroke="#f2eade" stroke-miterlimit="10" stroke-width="2.408"/>
          <path id="Path_33" data-name="Path 33" d="M668.282,601.945c-31.98-56.032-70.493-108.6-118.723-149.429S442.792,383.028,381.3,378.159" transform="translate(334.509 314.363)" fill="none" stroke="#f2eade" stroke-miterlimit="10" stroke-width="2.408"/>
          <path id="Path_34" data-name="Path 34" d="M669.3,454.415a555.921,555.921,0,0,0,143.585,58.436" transform="translate(678.217 405.37)" fill="none" stroke="#f2eade" stroke-miterlimit="10" stroke-width="2.408"/>
          <path id="Path_35" data-name="Path 35" d="M669.943,498.041a433.7,433.7,0,0,0,114.169,44.31" transform="translate(678.983 457.436)" fill="none" stroke="#f2eade" stroke-miterlimit="10" stroke-width="2.408"/>
          <path id="Path_36" data-name="Path 36" d="M730.645,499.847a570.743,570.743,0,0,0,141.782,37.712s145.465,20.75,216.16-31.156" transform="translate(751.428 459.591)" fill="none" stroke="#f2eade" stroke-miterlimit="10" stroke-width="2.408"/>
          <path id="Path_37" data-name="Path 37" d="M756.958,684.637c18.254-55,20.752-114.283,23.073-172.556" transform="translate(782.831 474.192)" fill="none" stroke="#f2eade" stroke-miterlimit="10" stroke-width="2.408"/>
          <path id="Path_38" data-name="Path 38" d="M406.75,463.269a532.9,532.9,0,0,0,59.6-67.813" transform="translate(364.876 335.006)" fill="none" stroke="#f2eade" stroke-miterlimit="10" stroke-width="2.408"/>
          <path id="Path_39" data-name="Path 39" d="M435.916,505.664a286.468,286.468,0,0,0,86.352-75.371" transform="translate(399.684 376.582)" fill="none" stroke="#f2eade" stroke-miterlimit="10" stroke-width="2.408"/>
          <path id="Path_40" data-name="Path 40" d="M392.477,450.792q26.742,7.416,53.7,13.924c6.269,1.514,12.772,2.994,19.072,1.623,14.5-3.154,22.378-19.539,27.677-34.229a673.886,673.886,0,0,0,33.459-135.592c.408-2.933.783-6.025-.239-8.785-1.957-5.271-7.96-7.131-13.185-8.258q-31.658-6.827-63.777-10.869" transform="translate(347.842 183.618)" fill="none" stroke="#f2eade" stroke-miterlimit="10" stroke-width="2.408"/>
          <path id="Path_41" data-name="Path 41" d="M456.913,599.809c67.495,13.071,136.8.3,204.23-13.139,48.892-9.743,98.188-20,143.759-41.2" transform="translate(424.743 514.041)" fill="none" stroke="#f2eade" stroke-miterlimit="10" stroke-width="2.408"/>
          <path id="Path_42" data-name="Path 42" d="M534.783,483.3a1101.865,1101.865,0,0,1,27.109,174.5c.088,1.189.388,2.661,1.478,2.939s1.375-2.229.342-1.764" transform="translate(517.677 439.844)" fill="none" stroke="#f2eade" stroke-miterlimit="10" stroke-width="2.408"/>
          <path id="Path_43" data-name="Path 43" d="M514.543,571.813q20.267,140.54,31.246,282.356" transform="translate(493.521 545.479)" fill="none" stroke="#f2eade" stroke-miterlimit="10" stroke-width="2.408"/>
          <path id="Path_44" data-name="Path 44" d="M586.853,557.679C611,674.71,668.464,783.731,749.756,866.731" transform="translate(579.82 528.61)" fill="none" stroke="#f2eade" stroke-miterlimit="10" stroke-width="2.408"/>
          <path id="Path_45" data-name="Path 45" d="M522.285,670.918c63.643-5.755,129.859-23.959,189.6-47.973" transform="translate(502.761 606.502)" fill="none" stroke="#f2eade" stroke-miterlimit="10" stroke-width="2.408"/>
          <path id="Path_46" data-name="Path 46" d="M630.643,704.536a516.189,516.189,0,0,0,77.427-80.028" transform="translate(632.081 608.367)" fill="none" stroke="#f2eade" stroke-miterlimit="10" stroke-width="2.408"/>
          <path id="Path_47" data-name="Path 47" d="M726.485,648.14q.655,43.8-1.45,87.586c.77.327,1.713-.579,1.489-1.428" transform="translate(744.732 636.571)" fill="none" stroke="#f2eade" stroke-miterlimit="10" stroke-width="2.408"/>
          <path id="Path_48" data-name="Path 48" d="M330.663,462.461c62.919,77.146,158.542,122.927,254.589,121.89" transform="translate(274.07 414.973)" fill="none" stroke="#f2eade" stroke-miterlimit="10" stroke-width="2.408"/>
          <path id="Path_49" data-name="Path 49" d="M366.606,568.11c13.305-11.36,22.544-27.115,31.3-42.689q26-46.253,49.377-94.108" transform="translate(316.966 377.8)" fill="none" stroke="#f2eade" stroke-miterlimit="10" stroke-width="2.408"/>
          <path id="Path_50" data-name="Path 50" d="M387.788,463.211q16.3,10.739,32.461,21.72c8.84,6.008,17.721,12.112,27.486,16.194,17.019,7.116,35.733,7.721,54.016,8.234q-2.323,2.458-4.648,4.915" transform="translate(342.246 415.868)" fill="none" stroke="#f2eade" stroke-miterlimit="10" stroke-width="2.408"/>
          <path id="Path_51" data-name="Path 51" d="M310.494,699.079c7.383,12.586,18.813,21.981,31.046,29.118,28.57,16.672,64.527,21.768,93.917,6.793,86.516-44.08,38.006-175.513-51.406-165.629C326.98,575.671,275.77,639.886,310.494,699.079Z" transform="translate(236.514 541.921)" fill="none" stroke="#f2eade" stroke-miterlimit="10" stroke-width="2.408"/>
          <path id="Path_52" data-name="Path 52" d="M270.5,530.954q22.189,29.21,44.376,58.422c13.887,18.282,27.907,36.707,45.027,51.572" transform="translate(202.27 496.715)" fill="none" stroke="#f2eade" stroke-miterlimit="10" stroke-width="2.408"/>
          <path id="Path_53" data-name="Path 53" d="M345.862,679.526q1.073-100.495-.814-200.994" transform="translate(291.238 434.153)" fill="none" stroke="#f2eade" stroke-miterlimit="10" stroke-width="2.408"/>
          <path id="Path_54" data-name="Path 54" d="M374.855,655.023Q455.3,589.417,540.076,530.135" transform="translate(326.811 495.738)" fill="none" stroke="#f2eade" stroke-miterlimit="10" stroke-width="2.408"/>
          <path id="Path_55" data-name="Path 55" d="M377.536,631.156q51.323,72.7,103.417,144.783" transform="translate(330.011 616.301)" fill="none" stroke="#f2eade" stroke-miterlimit="10" stroke-width="2.408"/>
          <path id="Path_56" data-name="Path 56" d="M368.239,638.724A1366.078,1366.078,0,0,0,265.827,785.608" transform="translate(196.692 625.333)" fill="none" stroke="#f2eade" stroke-miterlimit="10" stroke-width="2.408"/>
          <path id="Path_57" data-name="Path 57" d="M463.839,561.046c-26.65,28.3-296.558,245.82-313.406,281.542" transform="translate(58.975 532.629)" fill="none" stroke="#f2eade" stroke-miterlimit="10" stroke-width="2.408"/>
          <path id="Path_58" data-name="Path 58" d="M245.922,603.551A981.859,981.859,0,0,0,347.038,738.7" transform="translate(172.936 583.356)" fill="none" stroke="#f2eade" stroke-miterlimit="10" stroke-width="2.408"/>
          <path id="Path_59" data-name="Path 59" d="M455.3,666.788c-28.611,31.386-66.962,50.7-97.687,79.743q3.77-.26,7.543-.524" transform="translate(306.239 658.826)" fill="none" stroke="#f2eade" stroke-miterlimit="10" stroke-width="2.408"/>
          <path id="Path_60" data-name="Path 60" d="M409.337,561q40.676,83.436,82.421,166.274-.786-2.547-1.575-5.093" transform="translate(367.964 532.576)" fill="none" stroke="#f2eade" stroke-miterlimit="10" stroke-width="2.408"/>
          <path id="Path_61" data-name="Path 61" d="M308.257,644.174c-2.084,14.02-.09,28.188,7.475,40.331A78.885,78.885,0,0,0,328.7,699.671c12.79,12.158,29.64,17.006,46.459,18.693,11.461,1.147,23.174,1.531,34.33-1.481,22.263-6.01,40.427-26.243,45.538-50.046,10.684-49.778-28.934-82.5-70.427-90.35-35.576-6.734-70.737,29.945-76.347,67.688" transform="translate(246.405 550.096)" fill="#84a895"/>
          <path id="Path_62" data-name="Path 62" d="M352.326,407.609q22.847-84.86,41.024-171.038" transform="translate(299.924 145.385)" fill="none" stroke="#f2eade" stroke-miterlimit="10" stroke-width="2.408"/>
          <path id="Path_63" data-name="Path 63" d="M290.553,407.521l49.5-188.47" transform="translate(226.201 124.476)" fill="none" stroke="#f2eade" stroke-miterlimit="10" stroke-width="2.408"/>
          <path id="Path_64" data-name="Path 64" d="M218.018,389.267q40.42-100.551,80.837-201.1" transform="translate(139.635 87.617)" fill="none" stroke="#f2eade" stroke-miterlimit="10" stroke-width="2.408"/>
          <path id="Path_65" data-name="Path 65" d="M237.968,232.459a736.569,736.569,0,0,0,140.927,53.43" transform="translate(163.444 140.478)" fill="none" stroke="#f2eade" stroke-miterlimit="10" stroke-width="2.408"/>
          <path id="Path_66" data-name="Path 66" d="M290.471,491.427c23.487-35.336,47.1-70.829,75.369-101.954,12.255-13.492,25.766-26.4,42.219-33.174,30.355-12.5,64.327-2.051,95.347,8.44" transform="translate(226.103 281.471)" fill="none" stroke="#f2eade" stroke-miterlimit="10" stroke-width="2.408"/>
          <path id="Path_67" data-name="Path 67" d="M237.193,549.4q21.906-125.872,53.336-249.59" transform="translate(162.519 220.862)" fill="none" stroke="#f2eade" stroke-miterlimit="10" stroke-width="2.408"/>
          <path id="Path_68" data-name="Path 68" d="M250.317,349.977q79.546,20.791,158.275,44.92" transform="translate(178.182 280.729)" fill="none" stroke="#f2eade" stroke-miterlimit="10" stroke-width="2.408"/>
          <path id="Path_69" data-name="Path 69" d="M456.471,525.673c-31.522-25.843-70.357-40.511-109.832-45.979-54.112-7.495-117.549-6.526-151.379,45.85C152.88,591.158,151.31,680.2,179.1,752.177" transform="translate(70.922 431.51)" fill="none" stroke="#f2eade" stroke-miterlimit="10" stroke-width="2.408"/>
          <path id="Path_70" data-name="Path 70" d="M260.368,559.715A1152.42,1152.42,0,0,0,273.63,413.623" transform="translate(190.177 356.687)" fill="none" stroke="#f2eade" stroke-miterlimit="10" stroke-width="2.408"/>
          <path id="Path_71" data-name="Path 71" d="M227.33,476.818c.362,52.987,16.091,105.744,44.507,149.277" transform="translate(150.748 432.107)" fill="none" stroke="#f2eade" stroke-miterlimit="10" stroke-width="2.408"/>
          <path id="Path_72" data-name="Path 72" d="M670.251,284.359A1115.415,1115.415,0,0,1,516.6,47.783" transform="translate(495.979 -79.924)" fill="none" stroke="#f2eade" stroke-miterlimit="10" stroke-width="2.408"/>
          <path id="Path_73" data-name="Path 73" d="M483.506,322.606A1615.8,1615.8,0,0,1,609.471,94.86" transform="translate(456.48 -23.74)" fill="none" stroke="#f2eade" stroke-miterlimit="10" stroke-width="2.408"/>
          <path id="Path_74" data-name="Path 74" d="M406.859,336.216A1643.872,1643.872,0,0,1,533.546,52.566" transform="translate(365.006 -74.215)" fill="none" stroke="#f2eade" stroke-miterlimit="10" stroke-width="2.408"/>
          <path id="Path_75" data-name="Path 75" d="M327.33,288.846A1184.459,1184.459,0,0,1,418.169,47.453" transform="translate(270.093 -80.317)" fill="none" stroke="#f2eade" stroke-miterlimit="10" stroke-width="2.408"/>
          <path id="Path_76" data-name="Path 76" d="M243.258,198.615a975.094,975.094,0,0,1,83.09-166.992" transform="translate(169.757 -99.21)" fill="none" stroke="#f2eade" stroke-miterlimit="10" stroke-width="2.408"/>
          <path id="Path_77" data-name="Path 77" d="M512.726,142.461A918.828,918.828,0,0,1,629.54,228.345" transform="translate(491.353 33.07)" fill="none" stroke="#f2eade" stroke-miterlimit="10" stroke-width="2.408"/>
          <path id="Path_78" data-name="Path 78" d="M425.161,133.279c53.338,20.737,105.06,56.551,154.456,86.343" transform="translate(386.849 22.111)" fill="none" stroke="#f2eade" stroke-miterlimit="10" stroke-width="2.408"/>
          <path id="Path_79" data-name="Path 79" d="M457.035,66.759q78.81,48.7,155.877,100.493" transform="translate(424.889 -57.277)" fill="none" stroke="#f2eade" stroke-miterlimit="10" stroke-width="2.408"/>
          <path id="Path_80" data-name="Path 80" d="M351.565,85.205a1710.43,1710.43,0,0,1,182,65.446" transform="translate(299.016 -35.262)" fill="none" stroke="#f2eade" stroke-miterlimit="10" stroke-width="2.408"/>
          <path id="Path_81" data-name="Path 81" d="M256.524,79.159a968.536,968.536,0,0,0,179.843,83.162" transform="translate(185.589 -42.478)" fill="none" stroke="#f2eade" stroke-miterlimit="10" stroke-width="2.408"/>
          <path id="Path_82" data-name="Path 82" d="M301.786,386.738q-3.441,33.8-10.127,67.117c-1.606,8-3.4,16.107-7.311,23.154-3.72,6.708-9.164,12.114-14.532,17.418-12.441,12.292-25.565,25-41.954,29.752s-36.922-1.4-43.371-18.1c-2.634-6.828-2.639-14.431-2.6-21.812q.273-56.555.548-113.107c.107-22.634-6.51-56.845,19.074-65.878,19.285-6.813,49.451,2.674,67.584,9.9,30.932,12.334,35.973,39.326,32.691,71.557" transform="translate(96.342 224.587)" fill="#7da6b4"/>
          <path id="Path_83" data-name="Path 83" d="M597.923,218.088c35.49,29.269,84.106,39.649,127.477,27.218,33.207-9.52,62.439-31.235,95.665-40.677,33.972-9.653,69.842-5.9,104.967-7.662a334.384,334.384,0,0,0,77.126-13.042c6.725-1.968,13.518-4.209,19.25-8.434,6.933-5.113,11.84-12.8,15.584-20.838,22.266-47.824,1.594-112.87-43.4-136.544-18.3-9.631-38.962-12.8-59.293-14.865a645.668,645.668,0,0,0-236.6,20.164C655.971,35.2,548.667,57.4,545.463,119.348c-1.924,37.205,26.35,77.2,52.461,98.74" transform="translate(530.311 -136.95)" fill="#7da6b4"/>
          <path id="Path_84" data-name="Path 84" d="M833.575,519.11a1084.829,1084.829,0,0,1,24.183,179.584" transform="translate(874.269 482.58)" fill="none" stroke="#f2eade" stroke-miterlimit="10" stroke-width="2.408"/>
          <path id="Path_85" data-name="Path 85" d="M830.666,340.293c6.841,88.014,2.762,190.931,0,279.2" transform="translate(870.798 269.172)" fill="none" stroke="#f2eade" stroke-miterlimit="10" stroke-width="2.408"/>
          <path id="Path_86" data-name="Path 86" d="M892.429,308.724a201.033,201.033,0,0,0,25.72,85.281c9.938,17.385,22.4,32.956,34.812,48.444q23.775,29.681,47.554,59.363" transform="translate(944.508 231.496)" fill="none" stroke="#f2eade" stroke-miterlimit="10" stroke-width="2.408"/>
          <path id="Path_87" data-name="Path 87" d="M1013.54,366.5a1803.3,1803.3,0,0,1-180.67,69.274" transform="translate(873.428 300.453)" fill="none" stroke="#f2eade" stroke-miterlimit="10" stroke-width="2.408"/>
          <path id="Path_88" data-name="Path 88" d="M831.472,484.759a771.645,771.645,0,0,0,255.262-66.992" transform="translate(871.759 361.633)" fill="none" stroke="#f2eade" stroke-miterlimit="10" stroke-width="2.408"/>
          <path id="Path_89" data-name="Path 89" d="M818.278,250.846c-20.715,70.057-18.8,147.435,5.356,216.237" transform="translate(838.996 162.421)" fill="none" stroke="#f2eade" stroke-miterlimit="10" stroke-width="2.408"/>
          <path id="Path_90" data-name="Path 90" d="M846.336,253.394a407.478,407.478,0,0,0,37.293,143.881" transform="translate(889.499 165.462)" fill="none" stroke="#f2eade" stroke-miterlimit="10" stroke-width="2.408"/>
          <path id="Path_91" data-name="Path 91" d="M851.981,339.488c24.505-7.732,45.628-24.521,64.145-43.248,6.109-6.177,12.07-12.7,16.174-20.529,5.692-10.857,7.451-23.529,8.133-35.937" transform="translate(896.236 149.208)" fill="none" stroke="#f2eade" stroke-miterlimit="10" stroke-width="2.408"/>
          <path id="Path_92" data-name="Path 92" d="M757.292,167.3c35.9,44.424,50.39,107.439,37.813,164.458" transform="translate(783.23 62.717)" fill="none" stroke="#f2eade" stroke-miterlimit="10" stroke-width="2.408"/>
          <path id="Path_93" data-name="Path 93" d="M769.282,140.9C831.694,204.81,882.725,278.086,893.7,369.465" transform="translate(797.539 31.203)" fill="none" stroke="#f2eade" stroke-miterlimit="10" stroke-width="2.408"/>
          <path id="Path_94" data-name="Path 94" d="M787.652,198.229c28.826-18.563,67.1-48.245,92.53-71.754" transform="translate(819.463 13.991)" fill="none" stroke="#f2eade" stroke-miterlimit="10" stroke-width="2.408"/>
          <path id="Path_95" data-name="Path 95" d="M818.2,277.457c68.956-27.6,132.26-71.039,184.313-126.474" transform="translate(855.924 43.24)" fill="none" stroke="#f2eade" stroke-miterlimit="10" stroke-width="2.408"/>
          <path id="Path_96" data-name="Path 96" d="M847.961,195.637a574.608,574.608,0,0,1,44.255,103.57" transform="translate(891.438 96.532)" fill="none" stroke="#f2eade" stroke-miterlimit="10" stroke-width="2.408"/>
          <path id="Path_97" data-name="Path 97" d="M888.443,166.642c31.886,31.483,51.379,74.272,70.153,116" transform="translate(939.751 61.928)" fill="none" stroke="#f2eade" stroke-miterlimit="10" stroke-width="2.408"/>
          <path id="Path_98" data-name="Path 98" d="M177.136,360.241,298.412,175.406" transform="translate(90.844 72.388)" fill="none" stroke="#f2eade" stroke-miterlimit="10" stroke-width="2.408"/>
          <path id="Path_99" data-name="Path 99" d="M123.654,280.366,247.448,130.709" transform="translate(27.016 19.044)" fill="none" stroke="#f2eade" stroke-miterlimit="10" stroke-width="2.408"/>
          <path id="Path_100" data-name="Path 100" d="M96.483,168.153c35.26-27.78,80.712-39.521,112.844-71.3" transform="translate(-5.411 -21.361)" fill="none" stroke="#f2eade" stroke-miterlimit="10" stroke-width="2.408"/>
          <path id="Path_101" data-name="Path 101" d="M150,222.546c24.207,20.421,40.563,49.278,56.512,77.413s32.577,56.876,57.113,76.847c21.737,17.692,49.778,28.738,63.8,53.735,13.817,24.63,9.963,55.654,5.664,83.965l-12.772,84.112c-1.761,11.595-3.641,23.538-9.482,33.507-7.53,12.856-20.787,20.8-34.376,25.356s-27.868,6.225-41.748,9.64c-36.227,8.912-69.69,30.092-94.325,59.7C127.15,742.735,116.036,761.34,99.14,772.68s-42.533,12.246-54.11-5.067c-4.578-6.844-6.234-15.376-7.3-23.7-6.574-51.458,5.446-103.257,10.261-154.936,7.159-76.836-1.649-154.188-7.916-231.113-2.051-25.172-3.823-50.614-.443-75.621,2.939-21.724,12.919-63.5,31.149-77.648,22.307-17.315,61,2.573,79.221,17.947" transform="translate(-77.82 99.218)" fill="#84a895"/>
          <path id="Path_102" data-name="Path 102" d="M861.03,165.3c32.189,12.884,64.527,25.347,96.865,37.808,52.5,20.232,107,40.776,162.679,36.144,13.448-1.119,27.381-3.986,38-12.821,14.428-12,19.853-32.47,22.318-51.768,1.836-14.358,2.483-29.188-1.167-43.152-6.578-25.172-26-44-45.646-59.7-18.317-14.639-37.914-28.008-59.7-35.58C1035.5,22.711,993.146,28.706,953.1,37.6c-28.581,6.35-57.1,12.356-85.8,18.01-18.2,3.588-41.456,6.754-56.231,19.855-40.853,36.227,21.441,78.414,49.962,89.83" transform="translate(831.309 -103.186)" fill="#84a895"/>
        </g>
      </g>
    </g>
  </g>
</svg>
