<svg xmlns="http://www.w3.org/2000/svg" width="172.452" height="23.391" viewBox="0 0 172.452 23.391">
  <g id="form_logo" transform="translate(-1184.721 -846.278)">
    <path id="Path_103" data-name="Path 103" d="M716.917,15.017a.16.16,0,0,1,.126.151c0,.089-.126.151-.353.2a11.529,11.529,0,0,1-1.825,2.467.264.264,0,0,0,.075.05A13.551,13.551,0,0,0,719.5,19.4l-.793,1.234a13.824,13.824,0,0,1-4.733-1.939c-.038-.025-.064-.038-.064-.051l-.012.013a16.556,16.556,0,0,1-4.683,2.077L708.13,19.7a13.559,13.559,0,0,0,4.834-1.851,14.356,14.356,0,0,1-2.026-2.479l.88-.592a12.032,12.032,0,0,0,2.053,2.341,9.99,9.99,0,0,0,1.838-2.542ZM714.462,9.4c.2.025.315.076.315.164,0,.063-.088.164-.252.29v.994h4.721v1.082H708.482V10.85h4.873V9.314Zm-2.077,3.387c.151.088.226.164.226.214,0,.1-.088.151-.251.151a19.352,19.352,0,0,1-2.745,2.857l-1.082-.692a13.969,13.969,0,0,0,3.046-3.046ZM719.3,15.03l-1.082.83a16.791,16.791,0,0,1-2.744-3.046l.881-.541A11.925,11.925,0,0,0,719.3,15.03" transform="translate(522 837)" fill="#fff"/>
    <path id="Path_104" data-name="Path 104" d="M723.572,14.779v3.537a1.607,1.607,0,0,0,.893.981,5.276,5.276,0,0,0,2.052.3c2.152,0,4.116-.051,5.9-.151l-.44,1.284h-5.464a7.586,7.586,0,0,1-2.077-.239,2.631,2.631,0,0,1-1.3-.844,2.066,2.066,0,0,1-.315-.49l-1.171,1.132c-.075.152-.163.24-.251.24s-.164-.064-.189-.177l-.641-.906a12,12,0,0,0,1.862-1.234V15.861h-1.032V14.779ZM723.621,13l-.742.793a18.045,18.045,0,0,0-2.2-1.334l.78-.78A13.384,13.384,0,0,1,723.621,13m.492-2.353-.744.78a13.972,13.972,0,0,0-1.963-1.222l.793-.793a11.23,11.23,0,0,1,1.914,1.235m6.306-1.235.567.353c.075.051.113.089.113.139,0,.1-.088.2-.252.3l-1.875,1.461c.352.163.705.327,1.045.5l-.265.252h1.838v5.5a.984.984,0,0,1-.642,1.045,2.722,2.722,0,0,1-.982.19l-.44-1.083.679-.026c.2-.013.3-.163.3-.466v-.4h-1.926v1.774H727.6V17.183h-1.863v1.825h-1.083V12.424h3.763a21.9,21.9,0,0,0-2.039-.843l.68-.642c.352.126.692.239,1.032.365l1.032-.994h-4.028v-.9h4.821l.24-.1a.408.408,0,0,1,.264.1M727.6,13.407h-1.863v.981H727.6Zm0,1.862h-1.863V16.3H727.6Zm.981-.881h1.926v-.981h-1.926Zm0,1.914h1.926V15.269h-1.926Z" transform="translate(522 837)" fill="#fff"/>
    <path id="Path_105" data-name="Path 105" d="M736.256,14l-.554.34h2.2l-.667-.3.982-2.013.843.427c.126.063.19.114.19.164,0,.114-.089.214-.24.3l-.831,1.423h1.712v.982h-6.6v-.982h1.963c-.352-.6-.716-1.222-1.12-1.826l.983-.49c.428.679.8,1.334,1.133,1.976m.931-4.494c.2.025.3.075.3.163,0,.064-.075.164-.2.29v.932h2.265v.994h-5.9v-.994h2.506V9.415Zm1.964,6.7v4.432h-1.083V19.94h-2.9v.692h-1.082V16.2Zm-1.083.983h-2.9v1.774h2.9Zm6.546-6.634L743.28,14a4.647,4.647,0,0,1,1.435,2.946,2.12,2.12,0,0,1-.755,1.7,2.832,2.832,0,0,1-1.9.617l-.44-1.133a3.291,3.291,0,0,0,1.611-.453.994.994,0,0,0,.353-.831,4.93,4.93,0,0,0-1.423-2.757l1.07-3.147h-1.712v9.894h-1.132V9.957h3.1c.05-.126.1-.189.151-.189Z" transform="translate(522 837)" fill="#fff"/>
    <path id="Path_106" data-name="Path 106" d="M752.136,9.353c.188.025.29.075.29.163,0,.063-.076.164-.2.3v.44H757.1v.982H746.182v-.982H751.1V9.278Zm4.52,5.967v4.229a.983.983,0,0,1-.756,1.032,3.8,3.8,0,0,1-1.159.2l-.453-1.083.907-.026c.252-.025.378-.163.378-.466V16.3h-7.868v4.431h-1.083V15.32h10.034Zm-1.575-.642H748.2V11.933h6.886Zm-.88,4.871h-5.212v-2.6H754.2Zm-.2-6.684h-4.721v.882H754Zm-.831,4.96H750.02v.844h3.148Z" transform="translate(522 837)" fill="#fff"/>
    <path id="Path_107" data-name="Path 107" d="M761.421,14.828v3.8a1.357,1.357,0,0,0,.68.718,4,4,0,0,0,1.674.252q3.474,0,6.344-.151l-.389,1.233h-5.955a5.81,5.81,0,0,1-1.8-.226,2.221,2.221,0,0,1-1.12-.755,1.622,1.622,0,0,1-.252-.4l-1.146,1.184c-.076.126-.138.2-.2.2a.213.213,0,0,1-.2-.163l-.629-.869a11.989,11.989,0,0,0,1.813-1.246V15.861h-1.033V14.828Zm-.252-1.624-.679.744a15.178,15.178,0,0,0-1.926-1.285l.742-.73a10.057,10.057,0,0,1,1.863,1.271m.2-2.454-.692.73a13.277,13.277,0,0,0-1.763-1.17l.731-.743a10.006,10.006,0,0,1,1.724,1.183m3.84-.2V9.278l1.032.075c.189.025.289.075.289.163,0,.063-.075.164-.2.3v.73h3.3v.982h-3.3v.981h2.757v3.1H766.7a7.3,7.3,0,0,0,1.246,1.032,13.124,13.124,0,0,0,2.177,1.044l-.931.982a8.861,8.861,0,0,1-2.09-1.359,6.123,6.123,0,0,1-.768-.731v2.481h-1.12V16.642a7.6,7.6,0,0,1-.642.642,8.531,8.531,0,0,1-2.014,1.384l-.844-.944a8.036,8.036,0,0,0,2.028-1.045A8.6,8.6,0,0,0,764.9,15.61H762.5v-3.1h2.707v-.981h-3.147v-.982Zm0,2.907h-1.624v1.222h1.624Zm2.794,0H766.33v1.222H768Z" transform="translate(522 837)" fill="#fff"/>
    <path id="Path_108" data-name="Path 108" d="M775.073,11.341c.126.05.2.114.2.189,0,.1-.114.2-.34.3a8.973,8.973,0,0,1-1.021,2.19,8.946,8.946,0,0,1-1.875,1.989l-.944-.793a7.086,7.086,0,0,0,1.851-1.9,7.7,7.7,0,0,0,.906-2.178Zm1.776,2.757c.164.05.252.113.252.189s-.1.164-.29.29a46.592,46.592,0,0,1-1.989,4.368c1.561-.089,3.059-.227,4.469-.429a20.467,20.467,0,0,0-1.41-1.863l.844-.692a24.227,24.227,0,0,1,2.945,4.028l-1.082.743c-.227-.453-.466-.868-.692-1.246l-7.126.844c-.151.2-.277.3-.39.3a.209.209,0,0,1-.239-.2l-.453-1.372c.654,0,1.284-.025,1.9-.051a21.9,21.9,0,0,0,.957-2.051,27.722,27.722,0,0,0,1.184-3.311Zm2.366-4.242a6.324,6.324,0,0,0,1.121,3.273,11.862,11.862,0,0,0,2.266,2.139l-1.12.794a11.147,11.147,0,0,1-2.543-2.669,5.71,5.71,0,0,1-.894-2.505h-3.009V9.856Z" transform="translate(522 837)" fill="#fff"/>
    <path id="Path_109" data-name="Path 109" d="M788.109,9.907v3.839h-1.133v1.775h1.335V16.5h-1.335v2.039c.53-.138,1.058-.289,1.575-.466v.932c-.932.34-2.393.768-4.381,1.322-.076.125-.164.2-.239.2s-.126-.064-.139-.19l-.252-1.082c.177-.025.34-.051.491-.088V15.08l.919.064c.163.012.252.05.252.125,0,.051-.063.138-.189.252V19c.3-.049.591-.1.881-.175V13.746H784.17V9.907Zm-1.082.982h-1.775v1.875h1.775ZM791.282,9.6c.113.024.176.088.176.163s-.088.164-.251.29c-.051.139-.113.264-.164.39h2.694a.538.538,0,0,1,.176-.05l.151.113.453.5a.686.686,0,0,1,.088.227c0,.076-.126.176-.352.29a8.208,8.208,0,0,1-1.524,2.115l-.2.2a16.9,16.9,0,0,0,2.858,1.271l-1.082.894a13.15,13.15,0,0,1-2.607-1.5c-.126.088-.239.177-.365.252a15.773,15.773,0,0,1-2.341,1.145l-.78-.831a14.043,14.043,0,0,0,2.681-1.308,6.562,6.562,0,0,1-.945-1.322,10.721,10.721,0,0,1-.7.906l-.982-.693a8.492,8.492,0,0,0,2.115-3.348Zm2.832,6.508v4.62h-1.082V19.99h-2.707v.743h-1.082v-4.62Zm-1.082.982h-2.707v1.913h2.707ZM791.66,13.18c.2-.189.39-.391.566-.592a11.091,11.091,0,0,0,.819-1.158h-2.481a1.193,1.193,0,0,1-.113.188,6.076,6.076,0,0,0,1.209,1.562" transform="translate(522 837)" fill="#fff"/>
    <path id="Path_110" data-name="Path 110" d="M798.478,13.9h8.749a27.691,27.691,0,0,1-.265,5.036,1.975,1.975,0,0,1-.718,1.385,3.507,3.507,0,0,1-1.963.415l-.592-1.234a3.6,3.6,0,0,0,1.713-.226,1.335,1.335,0,0,0,.415-.819,19.413,19.413,0,0,0,.239-3.575h-7.6a20.267,20.267,0,0,1-.3,2.644,20.955,20.955,0,0,1-.9,3.21l-1.133-.541a17.449,17.449,0,0,0,.894-2.947,20.705,20.705,0,0,0,.328-3.6V9.718H806.5v3.046h-8.018Zm0-2.114h6.886V10.7h-6.886Zm6,3.977v2.908h-3.689v.592h-1.083v-3.5ZM803.4,16.6h-2.605v1.221H803.4Z" transform="translate(522 837)" fill="#fff"/>
    <path id="Path_111" data-name="Path 111" d="M709.509,30.822V24.541h4.306V25.6h-3.038V27.09H713.4v1.062h-2.622v2.67Z" transform="translate(522 837)" fill="#fff"/>
    <path id="Path_112" data-name="Path 112" d="M716,30.822h-1.2V26.271h1.118v.648a1.937,1.937,0,0,1,.517-.605.958.958,0,0,1,.52-.145,1.529,1.529,0,0,1,.793.226l-.373,1.05a1.059,1.059,0,0,0-.565-.2.673.673,0,0,0-.429.139.954.954,0,0,0-.276.5,7.161,7.161,0,0,0-.1,1.526Z" transform="translate(522 837)" fill="#fff"/>
    <path id="Path_113" data-name="Path 113" d="M720.9,29.374l1.2.2a1.975,1.975,0,0,1-.731,1,2.153,2.153,0,0,1-1.249.345,2.037,2.037,0,0,1-1.757-.776,2.609,2.609,0,0,1-.45-1.568,2.514,2.514,0,0,1,.592-1.772,1.95,1.95,0,0,1,1.495-.64,2.021,2.021,0,0,1,1.6.67,2.969,2.969,0,0,1,.561,2.054H719.15a1.219,1.219,0,0,0,.291.834.909.909,0,0,0,.694.3.745.745,0,0,0,.476-.154.958.958,0,0,0,.291-.5m.069-1.217a1.16,1.16,0,0,0-.271-.8.822.822,0,0,0-.625-.272.833.833,0,0,0-.651.287,1.106,1.106,0,0,0-.253.78Z" transform="translate(522 837)" fill="#fff"/>
    <path id="Path_114" data-name="Path 114" d="M725.782,29.374l1.2.2a1.975,1.975,0,0,1-.731,1,2.153,2.153,0,0,1-1.249.345,2.037,2.037,0,0,1-1.757-.776,2.609,2.609,0,0,1-.45-1.568,2.514,2.514,0,0,1,.592-1.772,1.95,1.95,0,0,1,1.495-.64,2.021,2.021,0,0,1,1.6.67,2.969,2.969,0,0,1,.561,2.054H724.03a1.219,1.219,0,0,0,.291.834.909.909,0,0,0,.694.3.745.745,0,0,0,.476-.154.965.965,0,0,0,.291-.5m.069-1.217a1.16,1.16,0,0,0-.271-.8.822.822,0,0,0-.625-.272.833.833,0,0,0-.651.287,1.106,1.106,0,0,0-.253.78Z" transform="translate(522 837)" fill="#fff"/>
    <path id="Path_115" data-name="Path 115" d="M728.875,30.822l-1.44-4.551H728.6l.853,2.983.784-2.983H731.4l.759,2.983.87-2.983h1.187l-1.461,4.551H731.6l-.785-2.927-.77,2.927Z" transform="translate(522 837)" fill="#fff"/>
    <path id="Path_116" data-name="Path 116" d="M735.752,27.66l-1.092-.2a1.7,1.7,0,0,1,.634-.977,2.321,2.321,0,0,1,1.337-.317,2.879,2.879,0,0,1,1.2.191,1.2,1.2,0,0,1,.555.484,2.481,2.481,0,0,1,.161,1.077l-.013,1.405a4.955,4.955,0,0,0,.057.886,2.653,2.653,0,0,0,.217.611h-1.191c-.031-.081-.07-.2-.115-.356-.021-.072-.036-.119-.043-.142a2.16,2.16,0,0,1-.66.45,1.9,1.9,0,0,1-.75.15,1.552,1.552,0,0,1-1.108-.381,1.273,1.273,0,0,1-.405-.965,1.292,1.292,0,0,1,.184-.687,1.2,1.2,0,0,1,.517-.463,4.081,4.081,0,0,1,.957-.28,6.5,6.5,0,0,0,1.17-.3v-.12a.619.619,0,0,0-.171-.494,1.023,1.023,0,0,0-.647-.149.855.855,0,0,0-.5.127.865.865,0,0,0-.292.443m1.611.977a7.445,7.445,0,0,1-.732.185,2.19,2.19,0,0,0-.656.21.5.5,0,0,0-.236.423.594.594,0,0,0,.188.438.664.664,0,0,0,.481.183,1.046,1.046,0,0,0,.621-.213.762.762,0,0,0,.287-.4,2.4,2.4,0,0,0,.047-.587Z" transform="translate(522 837)" fill="#fff"/>
    <path id="Path_117" data-name="Path 117" d="M739.161,26.272h1.281l1.089,3.23,1.063-3.23h1.247l-1.608,4.379-.287.793a3.155,3.155,0,0,1-.3.608,1.311,1.311,0,0,1-.33.341,1.454,1.454,0,0,1-.458.2,2.358,2.358,0,0,1-.615.073,3.179,3.179,0,0,1-.682-.073l-.106-.942a2.669,2.669,0,0,0,.51.055.755.755,0,0,0,.621-.246,1.72,1.72,0,0,0,.309-.627Z" transform="translate(522 837)" fill="#fff"/>
    <path id="Path_118" data-name="Path 118" d="M747.063,24.541h2.51a7.312,7.312,0,0,1,1.112.062,1.632,1.632,0,0,1,.656.259,1.607,1.607,0,0,1,.482.525,1.428,1.428,0,0,1,.193.735,1.487,1.487,0,0,1-.883,1.362,1.655,1.655,0,0,1,.883.57,1.511,1.511,0,0,1,.308.947,1.862,1.862,0,0,1-.2.833,1.677,1.677,0,0,1-.544.647,1.792,1.792,0,0,1-.851.3q-.316.035-1.529.043h-2.138Zm1.268,1.045v1.452h.831c.494,0,.8-.007.921-.02a.85.85,0,0,0,.513-.226.662.662,0,0,0,.186-.49.689.689,0,0,0-.161-.474.732.732,0,0,0-.478-.221c-.125-.014-.487-.021-1.083-.021Zm0,2.5v1.68h1.174a5.876,5.876,0,0,0,.87-.038.8.8,0,0,0,.46-.251.771.771,0,0,0,.179-.534.818.818,0,0,0-.138-.48.781.781,0,0,0-.4-.287,4.3,4.3,0,0,0-1.124-.09Z" transform="translate(522 837)" fill="#fff"/>
    <path id="Path_119" data-name="Path 119" d="M756.382,30.822V30.14a1.755,1.755,0,0,1-.653.575,1.848,1.848,0,0,1-.856.21,1.674,1.674,0,0,1-.822-.2,1.191,1.191,0,0,1-.527-.565,2.518,2.518,0,0,1-.163-1.007v-2.88h1.2v2.091a5.758,5.758,0,0,0,.066,1.177.652.652,0,0,0,.241.343.75.75,0,0,0,.447.126.953.953,0,0,0,.552-.169.86.86,0,0,0,.334-.42,4.872,4.872,0,0,0,.09-1.228v-1.92h1.2v4.551Z" transform="translate(522 837)" fill="#fff"/>
    <path id="Path_120" data-name="Path 120" d="M759.9,30.822h-1.2V26.271h1.118v.648a1.95,1.95,0,0,1,.517-.605.958.958,0,0,1,.52-.145,1.529,1.529,0,0,1,.793.226l-.373,1.05a1.056,1.056,0,0,0-.565-.2.673.673,0,0,0-.429.139.954.954,0,0,0-.276.5,7.161,7.161,0,0,0-.1,1.526Z" transform="translate(522 837)" fill="#fff"/>
    <path id="Path_121" data-name="Path 121" d="M764.8,29.374l1.2.2a1.973,1.973,0,0,1-.73,1,2.153,2.153,0,0,1-1.249.345,2.034,2.034,0,0,1-1.756-.776,2.6,2.6,0,0,1-.452-1.568,2.515,2.515,0,0,1,.593-1.772,1.95,1.95,0,0,1,1.495-.64,2.018,2.018,0,0,1,1.6.67,2.969,2.969,0,0,1,.562,2.054h-3.016a1.224,1.224,0,0,0,.29.834.912.912,0,0,0,.7.3.743.743,0,0,0,.476-.154.965.965,0,0,0,.291-.5m.069-1.217a1.16,1.16,0,0,0-.271-.8.824.824,0,0,0-.625-.272.833.833,0,0,0-.651.287,1.106,1.106,0,0,0-.253.78Z" transform="translate(522 837)" fill="#fff"/>
    <path id="Path_122" data-name="Path 122" d="M767.942,27.66l-1.092-.2a1.7,1.7,0,0,1,.634-.977,2.323,2.323,0,0,1,1.337-.317,2.879,2.879,0,0,1,1.2.191,1.211,1.211,0,0,1,.556.484,2.5,2.5,0,0,1,.16,1.077l-.013,1.405a4.934,4.934,0,0,0,.058.886,2.6,2.6,0,0,0,.216.611h-1.191c-.031-.081-.07-.2-.115-.356-.021-.072-.035-.119-.043-.142a2.16,2.16,0,0,1-.66.45,1.9,1.9,0,0,1-.75.15,1.552,1.552,0,0,1-1.108-.381,1.358,1.358,0,0,1-.22-1.652,1.2,1.2,0,0,1,.516-.463,4.081,4.081,0,0,1,.957-.28,6.5,6.5,0,0,0,1.17-.3v-.12a.619.619,0,0,0-.171-.494,1.023,1.023,0,0,0-.647-.149.855.855,0,0,0-.5.127.871.871,0,0,0-.292.443m1.611.977a7.445,7.445,0,0,1-.732.185,2.19,2.19,0,0,0-.656.21.5.5,0,0,0-.236.423.6.6,0,0,0,.189.438.66.66,0,0,0,.48.183,1.046,1.046,0,0,0,.621-.213.757.757,0,0,0,.287-.4,2.4,2.4,0,0,0,.047-.587Z" transform="translate(522 837)" fill="#fff"/>
    <path id="Path_123" data-name="Path 123" d="M774.917,30.822V30.14a1.754,1.754,0,0,1-.653.575,1.848,1.848,0,0,1-.856.21,1.671,1.671,0,0,1-.822-.2,1.191,1.191,0,0,1-.527-.565,2.518,2.518,0,0,1-.163-1.007v-2.88H773.1v2.091a5.764,5.764,0,0,0,.066,1.177.652.652,0,0,0,.241.343.75.75,0,0,0,.447.126.953.953,0,0,0,.552-.169.86.86,0,0,0,.334-.42,4.873,4.873,0,0,0,.09-1.228v-1.92h1.2v4.551Z" transform="translate(522 837)" fill="#fff"/>
    <path id="Path_124" data-name="Path 124" d="M777.252,29.618h1.2v.861a3,3,0,0,1-.09.825,1.222,1.222,0,0,1-.341.542,1.736,1.736,0,0,1-.635.377l-.237-.5a1.012,1.012,0,0,0,.519-.33,1,1,0,0,0,.163-.574h-.583Z" transform="translate(522 837)" fill="#fff"/>
    <path id="Path_125" data-name="Path 125" d="M782.151,30.822V24.541h1.9l1.14,4.284,1.127-4.284h1.9v6.281H787.04V25.877l-1.246,4.945h-1.222l-1.242-4.945v4.945Z" transform="translate(522 837)" fill="#fff"/>
    <path id="Path_126" data-name="Path 126" d="M789.22,27.72a4,4,0,0,1,.287-1.611,2.977,2.977,0,0,1,.586-.862,2.451,2.451,0,0,1,.812-.565,3.462,3.462,0,0,1,1.353-.248,2.95,2.95,0,0,1,2.222.861,3.3,3.3,0,0,1,.834,2.4,3.291,3.291,0,0,1-.827,2.38,3.3,3.3,0,0,1-4.439,0,3.243,3.243,0,0,1-.828-2.354m1.308-.043a2.356,2.356,0,0,0,.492,1.618,1.61,1.61,0,0,0,1.251.55,1.592,1.592,0,0,0,1.245-.546A2.4,2.4,0,0,0,794,27.66a2.368,2.368,0,0,0-.474-1.611,1.755,1.755,0,0,0-2.522.007,2.369,2.369,0,0,0-.479,1.621" transform="translate(522 837)" fill="#fff"/>
    <path id="Path_127" data-name="Path 127" d="M797.717,30.822V25.6h-1.864V24.541h4.992V25.6h-1.86v5.219Z" transform="translate(522 837)" fill="#fff"/>
    <path id="Path_128" data-name="Path 128" d="M805.682,28.513l1.23.39a2.751,2.751,0,0,1-.941,1.527,2.962,2.962,0,0,1-3.726-.355,3.275,3.275,0,0,1-.8-2.337,3.436,3.436,0,0,1,.809-2.437,2.778,2.778,0,0,1,2.129-.867,2.614,2.614,0,0,1,1.873.681,2.482,2.482,0,0,1,.643,1.157l-1.256.3a1.3,1.3,0,0,0-1.323-1.054,1.43,1.43,0,0,0-1.134.5,2.458,2.458,0,0,0-.435,1.624,2.633,2.633,0,0,0,.429,1.7,1.388,1.388,0,0,0,1.113.5,1.272,1.272,0,0,0,.871-.321,1.858,1.858,0,0,0,.522-1.011" transform="translate(522 837)" fill="#fff"/>
    <path id="Path_129" data-name="Path 129" d="M821.87,21.165c.137.016.214.05.214.11,0,.043-.06.111-.162.2v.137h3.033v.666h-6.109v.538h1.2v-.4l.649.043c.121.009.189.035.189.086s-.052.12-.137.2v.069h2.068v-.4l.649.043c.12.009.188.035.188.086s-.051.12-.136.2v.069h1.3v.633h-1.3v.9h-3.47v-.9h-1.2v1.136h6.109v.632H818.82a14.105,14.105,0,0,1-.179,1.6,14.524,14.524,0,0,1-.565,2.077l-.734-.368a10.9,10.9,0,0,0,.564-1.9,13.543,13.543,0,0,0,.205-2.315v-2.7h3.007v-.5Zm2.65,4.314v2.342h-1.052a13.728,13.728,0,0,1,1.522.563l-.505.471a8.8,8.8,0,0,0-2.034-.736l.368-.3H820.76l.3.221a.164.164,0,0,1,.059.112c0,.025-.051.052-.136.068a13.086,13.086,0,0,1-1.863.667l-.539-.5a7.029,7.029,0,0,0,1.735-.563h-1.068V25.479Zm-3.069.607h-1.47v.3h1.47Zm0,.829h-1.47v.3h1.47Zm-.7-3.171h2.067v-.3h-2.067Zm1.47,2.641h1.563v-.3h-1.563Zm1.563.53h-1.563v.3h1.563Z" transform="translate(522 837)" fill="#fff"/>
    <path id="Path_130" data-name="Path 130" d="M828.522,21.651c.068.034.111.077.111.129,0,.034-.094.076-.265.128-.077.221-.153.426-.23.606h1.393V21.138l.76.061c.137.016.213.05.213.11,0,.043-.059.111-.17.2v1.008H832.7v.7h-2.367v1.231h3.2v.734H826.1v-.734h3.435V23.215h-1.752l-.009.017a5.864,5.864,0,0,1-.743.948l-.7-.436a4.683,4.683,0,0,0,.837-1.007,5.782,5.782,0,0,0,.6-1.326Zm3.914,4.162v3.042h-.8v-.4h-3.538v.4H827.3V25.813Zm-.8.7h-3.538v1.239h3.538Z" transform="translate(522 837)" fill="#fff"/>
    <path id="Path_131" data-name="Path 131" d="M835.173,31.064H815.385V19.507h19.788Zm-19.313-.475H834.7V19.982H815.86Z" transform="translate(522 837)" fill="#fff"/>
    <path id="Path_132" data-name="Path 132" d="M701.377,9.564H666.941a4.257,4.257,0,0,0-4.22,4.24v13a4.257,4.257,0,0,0,4.22,4.24h34.436a4.257,4.257,0,0,0,4.22-4.24v-13a4.257,4.257,0,0,0-4.22-4.24" transform="translate(522 837)" fill="#2a7a31"/>
    <path id="Path_133" data-name="Path 133" d="M701.377,10.462H666.941a3.361,3.361,0,0,0-3.326,3.343v13a3.34,3.34,0,0,0,3.326,3.343h34.436A3.321,3.321,0,0,0,704.7,26.8v-13a3.34,3.34,0,0,0-3.326-3.343" transform="translate(522 837)" fill="#fff"/>
    <path id="Path_134" data-name="Path 134" d="M702.27,11.421,684.159,20.3H703.9V13.8a2.56,2.56,0,0,0-1.633-2.383" transform="translate(522 837)" fill="#2a7a31"/>
    <path id="Path_135" data-name="Path 135" d="M684.159,20.3l-3.265,9.038h6.53Z" transform="translate(522 837)" fill="#2a7a31"/>
    <path id="Path_136" data-name="Path 136" d="M684.159,20.3l18.111,8.883A2.561,2.561,0,0,0,703.9,26.8V20.3Z" transform="translate(522 837)" fill="#7ea31d"/>
    <path id="Path_137" data-name="Path 137" d="M666.048,11.421a2.559,2.559,0,0,0-1.632,2.383v6.5h19.743Z" transform="translate(522 837)" fill="#2a7a31"/>
    <path id="Path_138" data-name="Path 138" d="M664.415,20.3v6.5a2.562,2.562,0,0,0,1.632,2.383L684.159,20.3Z" transform="translate(522 837)" fill="#7ea31d"/>
  </g>
</svg>
