<svg xmlns="http://www.w3.org/2000/svg" xmlns:xlink="http://www.w3.org/1999/xlink" width="375" height="667" viewBox="0 0 375 667">
  <defs>
    <clipPath id="clip-path">
      <rect id="Rectangle_269" data-name="Rectangle 269" width="375" height="667" fill="#fff" stroke="#707070" stroke-width="1"/>
    </clipPath>
    <clipPath id="clip-path-2">
      <rect id="Rectangle_77" data-name="Rectangle 77" width="647.074" height="457.77" fill="none"/>
    </clipPath>
  </defs>
  <g id="mb_road" clip-path="url(#clip-path)">
    <g id="road" transform="translate(-161.703 214.074)">
      <g id="Group_58" data-name="Group 58" clip-path="url(#clip-path-2)">
        <path id="Path_682" data-name="Path 682" d="M720.967,135.4c-83.558-17.391-157.788-22.056-47.055-40.485A43.117,43.117,0,0,0,681.63,92.4H628.184c-202.223,24.66,18.1,44.951,51.355,64.583.366.215,1.557,1.056,1.4.947,1.921,1.6-2.038,3.639-4.8,4.906-67.755,30.94-341.851,51.228-414.5,205.4-15.779,33.478-20.569,70.855-17.893,109.91H697.86c-104.5-63.41-175.615-120.922-175.69-161.392-.235-98.88,440.531-131.013,198.8-181.358" transform="translate(-64.33 -23.684)" fill="#262727"/>
        <path id="Path_683" data-name="Path 683" d="M717.543,130.024c-83.455-17.371-159.068-22.286-45.9-37.627H586.734c-132.794,22.269,58.573,41.022,89.379,59.209.366.216,1.557,1.056,1.4.947,1.921,1.6-2.038,3.639-4.805,4.906-67.754,30.94-341.85,51.228-414.5,205.4-16.5,35.013-21.006,74.284-17.5,115.285H703.345C594,412.618,518.823,352.991,518.745,311.381c-.234-98.88,440.531-131.013,198.8-181.357" transform="translate(-63.418 -23.684)" fill="#505151"/>
        <path id="Path_684" data-name="Path 684" d="M458.106,411.3l-8.294.918c-7.446,28.444,1.667,57.887,15.023,84.986l10.062-3.535c-14.164-26.24-22.753-54.58-16.792-82.369" transform="translate(-118.353 -105.428)" fill="#fff"/>
        <path id="Path_685" data-name="Path 685" d="M582.726,280.972c-30.312,11.865-53.287,24.769-71.213,37.7l5.724.7c20.107-14.8,43.731-27.038,69.424-37.267Z" transform="translate(-135.391 -72.021)" fill="#fff"/>
        <path id="Path_686" data-name="Path 686" d="M767.567,223.9c-39.641,11.036-48.824,13.822-62.9,18.021l3.282,1.1c19.47-5.9,24.587-7.4,62.785-18.172Z" transform="translate(-186.518 -57.393)" fill="#fff"/>
        <path id="Path_687" data-name="Path 687" d="M892.925,183.722c-5.254,5.493-23.625,11.891-32.35,14.7l3.338.742c8.818-2.862,27.488-9.488,32.71-15.1Z" transform="translate(-227.784 -47.093)" fill="#fff"/>
        <path id="Path_688" data-name="Path 688" d="M842.349,149.711l-2.257.4c13.1,3.027,24.219,5.765,36.107,10.28.162.06.624.236.773.307l2.969-.275c-2.949-1.006-8.519-3.992-37.592-10.713" transform="translate(-222.363 -38.375)" fill="#fff"/>
        <path id="Path_689" data-name="Path 689" d="M742.136,129.185l-2.207.308c10.618,2.462,22.438,4.827,34.48,7.222l2.091-.38c-4.506-.891-25.91-5.1-34.364-7.15" transform="translate(-195.851 -33.113)" fill="#fff"/>
        <path id="Path_690" data-name="Path 690" d="M698.083,110.184l-.048.078c-2.247,3.612,4.777,6.339,6.377,7.179l2.427-.178c-4.01-1.818-8.046-3.986-6.351-7.069Z" transform="translate(-184.646 -28.243)" fill="#fff"/>
        <path id="Path_691" data-name="Path 691" d="M738.556,95.168a215.965,215.965,0,0,0-22.681,4.875l2,.138c1.257-.536,11.619-3,22.341-4.83Z" transform="translate(-189.484 -24.394)" fill="#fff"/>
        <path id="Path_692" data-name="Path 692" d="M689.668,153.087a3.345,3.345,0,0,0-.789-.883l-.005,0C670.82,134.548,457.6,115.038,595.725,92.4h-2.744c-4.427.725-8.681,1.48-12.477,2.245-106.2,21.6,72.62,38.611,103.468,56.739.341.2,1.6,1.082,1.585,1.072,3.012,2.528-6.247,6.144-10.463,7.7-81.5,30.13-337.588,55.295-402.579,201.25-14.666,32.921-19.245,71.229-12.955,116.746h13.419c-8.327-46.14-4.847-84.739,9.187-118.183,41.236-98.339,168.576-140.7,307.719-175.5,44.784-11.183,103.162-24.559,99.783-31.374" transform="translate(-67.975 -23.684)" fill="#fff"/>
        <path id="Path_693" data-name="Path 693" d="M869.158,147.863C808.644,117.389,611.947,113.2,763.715,92.4h-3.3c-121.251,15.984-17.638,23.272,58.561,40.661,199.3,45.457-172.8,75.221-215.994,163.317-25.966,52.906,79.473,129.89,161.338,181.773h17.193c-94.9-58.707-166.967-115.485-174.49-157.74-17.269-97.149,342.3-128.8,262.14-172.546" transform="translate(-158.539 -23.684)" fill="#fff"/>
      </g>
    </g>
  </g>
</svg>
