<svg xmlns="http://www.w3.org/2000/svg" width="127.503" height="27.41" viewBox="0 0 127.503 27.41">
  <g id="next_btn" transform="translate(-616 -558.263)">
    <path id="Path_1652" data-name="Path 1652" d="M345.518,307.48l-15.225-8.791a4.908,4.908,0,0,0-7.361,4.25v17.58a4.908,4.908,0,0,0,7.361,4.25l15.225-8.791a4.907,4.907,0,0,0,0-8.5" transform="translate(395.531 260.238)" fill="#fff"/>
    <g id="Group_253" data-name="Group 253" transform="translate(330.838 194.998)">
      <path id="Path_809" data-name="Path 809" d="M260.523,302.02a1.707,1.707,0,0,1-1.686,1.686H249.21c-.152,0-.229.066-.229.2v3.971c0,.018.015.033.043.043s.044,0,.044-.015a1.217,1.217,0,0,1,.713-.428,1.257,1.257,0,0,1,.829.113,69.416,69.416,0,0,1,7.543,4.4,1.5,1.5,0,0,1,.657,1.085v.2a1.589,1.589,0,0,1-.372,1.029l-1.057,1.314a1.586,1.586,0,0,1-1.143.572.309.309,0,0,1-.143.029,1.661,1.661,0,0,1-1.085-.4,63.835,63.835,0,0,0-5.829-3.885.147.147,0,0,0-.128,0,.112.112,0,0,0-.072.115v11.227a1.657,1.657,0,0,1-1.686,1.685h-1.2a1.659,1.659,0,0,1-1.686-1.685v-19.37c0-.134-.076-.2-.228-.2H235.84a1.707,1.707,0,0,1-1.686-1.686v-.942a1.707,1.707,0,0,1,1.686-1.686h23a1.707,1.707,0,0,1,1.686,1.686Z" transform="translate(51.008 65.539)" fill="#fff"/>
      <path id="Path_810" data-name="Path 810" d="M257.8,308.062a1.707,1.707,0,0,1,1.686-1.686h23.883a1.707,1.707,0,0,1,1.685,1.686v1.286a1.709,1.709,0,0,1-1.685,1.686H259.488a1.709,1.709,0,0,1-1.686-1.686Z" transform="translate(58.36 67.068)" fill="#fff"/>
      <path id="Path_811" data-name="Path 811" d="M308.306,318.465a1.21,1.21,0,0,1,.372.886v.2a1.307,1.307,0,0,1-.686.97l-1.227.714c-.039.02-.052.044-.044.072a.067.067,0,0,0,.072.043c.438-.018.829-.028,1.171-.028h.028a.9.9,0,0,1,.8.457,1.107,1.107,0,0,1,.171.57,1.218,1.218,0,0,1-.085.429c-.038.1-.077.2-.115.314a2.544,2.544,0,0,1-.842,1.171,2.063,2.063,0,0,1-1.3.457H295.964a26.265,26.265,0,0,1-6.442-.629,7.292,7.292,0,0,1-3.9-2.485.137.137,0,0,0-.129-.043c-.048.01-.071.033-.071.072a13.28,13.28,0,0,1-.972,2.456.924.924,0,0,1-.857.514h-.029a1.332,1.332,0,0,1-1-.514l-.285-.342a2.376,2.376,0,0,1-.544-1.286,1.668,1.668,0,0,1-.028-.314,2.578,2.578,0,0,1,.228-1.057,16.18,16.18,0,0,0,.943-5.513,1.712,1.712,0,0,1,.528-1.2,1.666,1.666,0,0,1,1.2-.485,1.612,1.612,0,0,1,1.185.485,1.581,1.581,0,0,1,.457,1.114q0,.373-.085,1.343a.692.692,0,0,0,.057.4,6.687,6.687,0,0,0,.886,1.571c.018.038.043.048.071.029s.043-.039.043-.057v-5.57c0-.152-.066-.229-.2-.229h-3.513a1.514,1.514,0,1,1,0-3.028h10.169a1.514,1.514,0,1,1,0,3.028h-2.685a.2.2,0,0,0-.228.229v1.485a.2.2,0,0,0,.228.229h2.143a1.5,1.5,0,0,1,0,3h-2.143a.2.2,0,0,0-.228.228v2.657a.233.233,0,0,0,.228.257,28.049,28.049,0,0,0,4.971.342h.143a.093.093,0,0,0,.087-.057.056.056,0,0,0-.029-.085q-.484-.486-1-.943a1.1,1.1,0,0,1-.343-.8v-.143a1.048,1.048,0,0,1,.572-.857,18.422,18.422,0,0,0,1.627-1.057,3.2,3.2,0,0,1,2-.8,2.626,2.626,0,0,1,.829.144l.228.057a1.118,1.118,0,0,1,.744.77,1.009,1.009,0,0,1,.056.314,1.033,1.033,0,0,1-.285.714,17.324,17.324,0,0,1-3.314,2.628c-.038.02-.052.043-.043.072a.068.068,0,0,0,.072.043q5.8,0,8.827-.057a.115.115,0,0,0,.115-.057.092.092,0,0,0-.029-.113,22.857,22.857,0,0,0-2.543-2.6,1.087,1.087,0,0,1-.371-.829,1.059,1.059,0,0,1,.57-1l.772-.4q.029,0,.029-.044c0-.028-.02-.043-.057-.043h-7.056a1.707,1.707,0,0,1-1.686-1.686V304.323a1.609,1.609,0,0,1,.5-1.2,1.644,1.644,0,0,1,1.186-.485h1.942a.265.265,0,0,0,.286-.2l.228-.742a.226.226,0,0,0-.043-.143.149.149,0,0,0-.128-.057h-3.286a1.4,1.4,0,0,1-1.028-.429,1.48,1.48,0,0,1,0-2.084,1.4,1.4,0,0,1,1.028-.429h10.657a1.4,1.4,0,0,1,1.028.429,1.48,1.48,0,0,1,0,2.084,1.4,1.4,0,0,1-1.028.429h-3.172a.294.294,0,0,0-.285.2l-.372.742a.15.15,0,0,0,0,.129.112.112,0,0,0,.115.072h2.771a1.657,1.657,0,0,1,1.686,1.685v10.256a1.647,1.647,0,0,1-.485,1.186,1.605,1.605,0,0,1-1.2.5h-.4a.068.068,0,0,0-.072.043.069.069,0,0,0,.015.072,24.353,24.353,0,0,1,2.485,2.086m-15.884-19.94a1.707,1.707,0,0,1,1.686,1.685v6.656a1.707,1.707,0,0,1-1.686,1.686h-7.6a1.61,1.61,0,0,1-1.2-.5,1.647,1.647,0,0,1-.485-1.186V300.21a1.644,1.644,0,0,1,.485-1.185,1.605,1.605,0,0,1,1.2-.5Zm-2.457,3.685c.152,0,.229-.067.229-.2v-.486c0-.133-.077-.2-.229-.2h-2.885a.177.177,0,0,0-.2.2v.486a.177.177,0,0,0,.2.2Zm0,3.542c.152,0,.229-.066.229-.2v-.514c0-.133-.077-.2-.229-.2h-2.885a.177.177,0,0,0-.2.2v.514a.177.177,0,0,0,.2.2Zm13.885.6c.133,0,.2-.077.2-.229v-.457c0-.152-.067-.228-.2-.228h-4a.2.2,0,0,0-.229.228v.457a.2.2,0,0,0,.229.229Zm0,3.542c.133,0,.2-.077.2-.229v-.485a.177.177,0,0,0-.2-.2h-4c-.152,0-.229.066-.229.2v.485a.2.2,0,0,0,.229.229Zm0,3.542c.133,0,.2-.076.2-.228v-.486a.177.177,0,0,0-.2-.2h-4c-.152,0-.229.067-.229.2v.486a.2.2,0,0,0,.229.228Z" transform="translate(66.453 65.35)" fill="#fff"/>
    </g>
  </g>
</svg>
