<svg id="o_ans" xmlns="http://www.w3.org/2000/svg" xmlns:xlink="http://www.w3.org/1999/xlink" width="147.127" height="159.285" viewBox="0 0 147.127 159.285">
  <defs>
    <clipPath id="clip-path">
      <rect id="Rectangle_150" data-name="Rectangle 150" width="147.127" height="159.285" fill="none"/>
    </clipPath>
  </defs>
  <g id="Group_102" data-name="Group 102" transform="translate(0 0)" clip-path="url(#clip-path)">
    <path id="Path_951" data-name="Path 951" d="M139.227,106.693a73.548,73.548,0,1,0-98.794,32.534,73.549,73.549,0,0,0,98.794-32.534" transform="translate(0 0)" fill="#d13239"/>
    <path id="Path_952" data-name="Path 952" d="M71.353,40.692a2.038,2.038,0,0,1-2.7.889l-3.954-2a.111.111,0,0,0-.121.016c-.039.031-.055.061-.046.09a16.35,16.35,0,0,0,3.317,5.6,1.253,1.253,0,0,1,.285,1.174,1.772,1.772,0,0,1-.124.319,1.306,1.306,0,0,1-.656.624l-1.008.483a2.6,2.6,0,0,1-1.647.239,1.755,1.755,0,0,1-.64-.17,2.106,2.106,0,0,1-.742-.644c-.032-.039-.073-.085-.123-.138a.042.042,0,0,0-.061-.03c-.032.009-.04.03-.031.061q.13,2.087.077,3.856a1.822,1.822,0,0,1-.185.822,2.012,2.012,0,0,1-1.925,1.09l-.73-.063a1.8,1.8,0,0,1-.745-.186,1.761,1.761,0,0,1-.594-.49,1.993,1.993,0,0,1-.5-1.435,42.464,42.464,0,0,0-.1-5.926,1.685,1.685,0,0,1,.155-.915,2.3,2.3,0,0,1,.305-.456,1.642,1.642,0,0,1,1.313-.483l.548.049c.173.011.235-.061.185-.212a19.267,19.267,0,0,1-1.244-5.552.423.423,0,0,0-.227-.382L53.5,33.939a.418.418,0,0,0-.424.013,21.485,21.485,0,0,1-6.762,2.657.155.155,0,0,0-.113.115.147.147,0,0,0,.022.144l.637.7a2,2,0,0,1,.452,1.449,1.761,1.761,0,0,1-.171.715,1.794,1.794,0,0,1-.551.637,26.486,26.486,0,0,1-4.062,2.607,2.03,2.03,0,0,1-1.63.131c-.121-.062-.233-.119-.335-.169a2.449,2.449,0,0,1-.973-.872l-.439-.719a1.455,1.455,0,0,1-.162-1.34.911.911,0,0,1,.077-.229,1.673,1.673,0,0,1,.9-.8,17.494,17.494,0,0,0,3.22-1.771c.043-.031.057-.062.047-.092s-.042-.046-.092-.047l-.638.059a2.393,2.393,0,0,1-1.1-.248,1.9,1.9,0,0,1-.425-.29,2.469,2.469,0,0,1-.892-1.4c-.12-.417-.232-.829-.333-1.236a1.209,1.209,0,0,1,.066-.96c.042-.08.088-.171.139-.274a1.243,1.243,0,0,1,1.13-.5A16.547,16.547,0,0,0,47.631,31.2a.115.115,0,0,0,.032-.213l-3.5-1.764a2.037,2.037,0,0,1-.891-2.7l.277-.548a1.919,1.919,0,0,1,1.177-1.008,1.954,1.954,0,0,1,1.524.12L51,27.484c.142.072.252.027.335-.136l.937-1.856c.082-.162.053-.278-.089-.35l-2.89-1.458a1.916,1.916,0,0,1-1.01-1.178,1.945,1.945,0,0,1,.12-1.522l.275-.548a1.978,1.978,0,0,1,2.7-.889L54.266,21c.143.072.254.027.336-.135l.506-1.005a2.037,2.037,0,0,1,2.7-.888l.912.46a2.032,2.032,0,0,1,.888,2.7l-.506,1c-.081.163-.05.281.09.352L64,25.915a.241.241,0,0,0,.367-.12l.506-1a2.033,2.033,0,0,1,2.7-.888l.942.474a1.926,1.926,0,0,1,1.01,1.178,1.96,1.96,0,0,1-.119,1.524l-.506,1a.241.241,0,0,0,.12.367l3.011,1.52a1.975,1.975,0,0,1,.891,2.7l-.277.547a1.963,1.963,0,0,1-1.154,1,1.919,1.919,0,0,1-1.547-.112l-3.011-1.518a.239.239,0,0,0-.366.12l-.938,1.856a.241.241,0,0,0,.121.366l4.988,2.516a1.961,1.961,0,0,1,1,1.155,1.917,1.917,0,0,1-.112,1.545Zm-24.9,4.039,3.821-7.574a1.983,1.983,0,0,1,2.7-.889l.7.354a1.975,1.975,0,0,1,.887,2.7L50.7,46.987a7.816,7.816,0,0,1-1.555,2.25,2.856,2.856,0,0,1-1.961.709,8.747,8.747,0,0,1-3.5-.926c-.042-.02-.082-.04-.123-.062a2.088,2.088,0,0,1-.987-1.07,2.67,2.67,0,0,1-.192-1.661,6.654,6.654,0,0,0,.155-.914,1.7,1.7,0,0,1,.14-.426,1.214,1.214,0,0,1,.594-.576,1.194,1.194,0,0,1,1.205-.042l.031.016,1.186.6a.819.819,0,0,0,.472.124.444.444,0,0,0,.289-.274m6.8-1a2.218,2.218,0,0,1,.169-.487,1.814,1.814,0,0,1,.721-.744,1.777,1.777,0,0,1,1.448-.224l.138.031a3.316,3.316,0,0,1,.441.185,2.15,2.15,0,0,1,.865.78,1.975,1.975,0,0,1,.329,1.541q-.373,1.873-.881,3.639a2.654,2.654,0,0,1-.154.379,1.981,1.981,0,0,1-.811.85,2.121,2.121,0,0,1-1.586.193l-.41-.094a2.219,2.219,0,0,1-.381-.153,1.712,1.712,0,0,1-.758-.765,1.819,1.819,0,0,1-.134-1.478q.555-1.7,1-3.653m3.853-16.108c-.142-.072-.254-.027-.336.136l-.937,1.856c-.082.162-.05.279.09.35l4.807,2.425a.24.24,0,0,0,.366-.12l.937-1.856a.24.24,0,0,0-.12-.366Z" transform="translate(13.599 6.559)" fill="#fff"/>
    <path id="Path_953" data-name="Path 953" d="M62.735,58.916a1.973,1.973,0,0,1-.888-2.7l2.165-4.289a1.963,1.963,0,0,1,1.153-1,1.92,1.92,0,0,1,1.547.113l17.977,9.069A1.929,1.929,0,0,1,85.7,61.286a1.96,1.96,0,0,1-.12,1.524L83.416,67.1a1.982,1.982,0,0,1-2.7.888l-2.188-1.1a.758.758,0,0,1-.382-.421.71.71,0,0,1,.049-.586c.02-.042,0-.077-.059-.107l-12.29-6.2c-.062-.032-.1-.027-.123.015a.709.709,0,0,1-.444.386.755.755,0,0,1-.564-.055Zm22.734-3.833a.147.147,0,0,0-.062.121.109.109,0,0,0,.061.107l4.867,2.456a1.86,1.86,0,0,1,.83,2.517,1.873,1.873,0,0,1-1.092.957,1.787,1.787,0,0,1-1.44-.1L63.08,48.253a1.779,1.779,0,0,1-.934-1.1,1.861,1.861,0,0,1,.12-1.448,1.861,1.861,0,0,1,2.517-.827L69.8,47.408c.1.051.158.016.167-.107l.015-.031a1.275,1.275,0,0,1,.5-.911,1.128,1.128,0,0,1,.954-.225c.02.011.034.011.039,0s0-.02-.026-.031L70.3,45.521a2.035,2.035,0,0,1-.889-2.7l1.443-2.86a1.914,1.914,0,0,1,1.177-1.01,1.96,1.96,0,0,1,1.524.12l16.731,8.442a1.964,1.964,0,0,1,1,1.154,1.922,1.922,0,0,1-.112,1.545l-1.642,3.255a1.517,1.517,0,0,1-.911.781,1.475,1.475,0,0,1-1.165-.073.335.335,0,0,0-.35.013,16.943,16.943,0,0,1-1.634.893M80.232,61.83a.24.24,0,0,0-.12-.366L68.128,55.417a.241.241,0,0,0-.366.12l-.4.791c-.073.143-.027.255.136.336l11.985,6.048c.162.081.281.051.351-.09Zm.757-23.814c.14.072.255.027.337-.136l.153-.3c.084-.162.05-.279-.09-.351l-9.126-4.6a1.746,1.746,0,0,1-.761-2.35,1.694,1.694,0,0,1,1.016-.88,1.672,1.672,0,0,1,1.325.1L83,34.108c.121.061.219.022.29-.12a1.651,1.651,0,0,1,.978-.842,1.608,1.608,0,0,1,1.309.088l1.582.8a1.745,1.745,0,0,1,.754,2.288c-.072.142-.049.243.076.305l9.4,4.743A1.755,1.755,0,0,1,95.808,44.5l-9.37-4.728c-.142-.072-.254-.027-.335.135l-.153.305c-.084.163-.054.279.088.351l7.7,3.883A1.7,1.7,0,1,1,92.2,47.489L72.4,37.5a1.691,1.691,0,0,1-.872-.992,1.684,1.684,0,0,1,1.089-2.161,1.7,1.7,0,0,1,1.316.111ZM74.922,43.16a.211.211,0,0,0-.32.107l-.306.609c-.081.162-.053.278.088.35l10.983,5.54c.14.072.254.027.336-.135l.306-.609a.21.21,0,0,0-.105-.32Zm6.949,8.467a.18.18,0,0,0,.061-.161.176.176,0,0,0-.107-.128l-6.844-3.454a.177.177,0,0,0-.167-.008.091.091,0,0,0-.046.128q-.018.717-.113,1.584a.351.351,0,0,0,.2.367l5.477,2.763a.347.347,0,0,0,.41-.059q.9-.806,1.132-1.032" transform="translate(21.542 10.243)" fill="#fff"/>
    <path id="Path_954" data-name="Path 954" d="M8.813,70.565a1.983,1.983,0,0,1-.889-2.7l3.437-6.813a1.971,1.971,0,0,1,1.157-1,1.92,1.92,0,0,1,1.544.112l15.363,7.752a1.922,1.922,0,0,1,1.01,1.177,1.969,1.969,0,0,1-.121,1.522l-3.39,6.722a1.98,1.98,0,0,1-2.7.891l-2.1-1.059a.682.682,0,0,1-.341-.383.634.634,0,0,1,.04-.532c.02-.042,0-.077-.062-.108l-9.947-5.019a.09.09,0,0,0-.136.046.721.721,0,0,1-.437.371.766.766,0,0,1-.6-.054ZM33.482,53.741a.455.455,0,0,0-.271-.366l-.274-.139a.458.458,0,0,0-.458,0,20.3,20.3,0,0,1-2.259,1.073.249.249,0,0,0-.169.336A30.607,30.607,0,0,0,37.23,66.661a1.33,1.33,0,0,1,.347,1.205,1.648,1.648,0,0,1-.14.426,1.262,1.262,0,0,1-.641.591q-.474.257-.962.545a2.571,2.571,0,0,1-1.617.329,2.7,2.7,0,0,1-.684-.231,2.32,2.32,0,0,1-.729-.6q-1.64-2.122-3.244-4.689c-.051-.1-.1-.1-.153,0a1.292,1.292,0,0,1-.8.684,1.342,1.342,0,0,1-1.028-.081l-9.764-4.926a1.512,1.512,0,0,1-.783-.91,1.474,1.474,0,0,1,.073-1.165.116.116,0,0,0,0-.115A.111.111,0,0,0,17,57.674a42.189,42.189,0,0,1-5.822.192,2.447,2.447,0,0,1-.868-.246,2.34,2.34,0,0,1-1.271-1.864c-.031-.246-.072-.5-.119-.748a1.658,1.658,0,0,1,.154-.914,3.049,3.049,0,0,1,.231-.381,1.435,1.435,0,0,1,1.2-.5,37.111,37.111,0,0,0,6.965-.265,29.329,29.329,0,0,0,6.238-1.471c.03-.009.047-.027.046-.053s-.02-.049-.061-.069l-2.238-.328a2.027,2.027,0,0,1-.624-.2,2.1,2.1,0,0,1-.7-.582,2.276,2.276,0,0,1-.506-1.5c.008-.568-.008-1.167-.045-1.8a.125.125,0,0,0-.062-.144.186.186,0,0,0-.184.022q-1.176.666-2.243,1.2a1.964,1.964,0,0,1-1.553.054c-.084-.04-.163-.081-.244-.123a2.276,2.276,0,0,1-.972-.949c-.162-.283-.333-.575-.514-.869a1.583,1.583,0,0,1-.117-1.356.753.753,0,0,1,.076-.228,1.588,1.588,0,0,1,.842-.76,22.757,22.757,0,0,0,5.207-3.135,2.389,2.389,0,0,1,1.541-.557,2.174,2.174,0,0,1,.989.232,2.275,2.275,0,0,1,.487.321l1.018.934a1.341,1.341,0,0,1,.482,1.082,1.237,1.237,0,0,1-.123.624,1.4,1.4,0,0,1-.383.456.109.109,0,0,0-.053.107.113.113,0,0,0,.066.092l4.168,2.1a2.033,2.033,0,0,1,.891,2.7l-.339.669a.081.081,0,0,0,.008.1.155.155,0,0,0,.115.039,19.39,19.39,0,0,0,4.061-2.378,2.6,2.6,0,0,1,1.543-.557,2.154,2.154,0,0,1,1.034.216,2.184,2.184,0,0,1,.456.308l1.063.918a1.551,1.551,0,0,1,.53,1.144,1.339,1.339,0,0,1-.14.655,1.218,1.218,0,0,1-.368.425c-.1.1-.092.182.03.244l5.81,2.93a2.038,2.038,0,0,1,.891,2.7l-.078.154a1.908,1.908,0,0,1-1.177,1.008,1.957,1.957,0,0,1-1.522-.12l-2.192-1.1a.1.1,0,0,0-.119.013.141.141,0,0,0-.062.123,2.052,2.052,0,0,1,.028.32,1.526,1.526,0,0,1-.139.884,1.564,1.564,0,0,1-.337.44,1.639,1.639,0,0,1-1.374.452l-.9-.109a2.206,2.206,0,0,1-.73-.216,2.114,2.114,0,0,1-.653-.521,2.6,2.6,0,0,1-.6-1.526q-.087-1.037-.251-2.226M24.661,70.623a.243.243,0,0,0-.121-.367L14.9,65.391a.24.24,0,0,0-.364.121l-.737,1.46a.24.24,0,0,0,.12.366L23.557,72.2a.242.242,0,0,0,.367-.12Zm-3.153-13.65a.154.154,0,0,0-.067.1c-.007.035.012.063.053.084l5.656,2.854a.086.086,0,0,0,.1-.007c.023-.026.02-.059-.008-.1a26.28,26.28,0,0,1-1.449-3.937c-.051-.151-.157-.193-.32-.123a24.35,24.35,0,0,1-3.966,1.128M27,50.4a.841.841,0,0,0-.364-.336l-2.282-1.151a.147.147,0,0,0-.144.022.158.158,0,0,0-.085.13c.036.834.05,1.539.039,2.119,0,.1.034.132.107.092a2.324,2.324,0,0,1,2,.053l1.7.86c.019.009.043,0,.069-.023a.08.08,0,0,0,.022-.084Q27.353,50.914,27,50.4" transform="translate(2.69 14.021)" fill="#fff"/>
    <path id="Path_955" data-name="Path 955" d="M64.73,70.8a1.922,1.922,0,0,1,1.01,1.177,1.972,1.972,0,0,1-.12,1.524l-.323.638a1.969,1.969,0,0,1-1.153,1,1.922,1.922,0,0,1-1.548-.112l-.76-.385c-.165-.081-.279-.05-.35.092l-6.4,12.685a8,8,0,0,1-1.656,2.37,3.315,3.315,0,0,1-2.014.815,10.653,10.653,0,0,1-4.127-1.05c-.04-.022-.08-.042-.121-.062a2.133,2.133,0,0,1-1.018-1.086,2.806,2.806,0,0,1-.252-1.691c.053-.356.094-.715.127-1.081a1.441,1.441,0,0,1,.139-.5A1.222,1.222,0,0,1,46.7,84.6a1.124,1.124,0,0,1,1.157-.027q.822.415,1.826.92a.92.92,0,0,0,.638.132.761.761,0,0,0,.431-.432l2.224-4.412a.142.142,0,0,0-.023-.144.286.286,0,0,0-.115-.113l-2.269-.269a2.243,2.243,0,0,1-.517-.185,1.643,1.643,0,0,1-.652-.6,1.789,1.789,0,0,1-.211-1.4,26.156,26.156,0,0,0,.779-4.111,2.327,2.327,0,0,1,.216-.656,2.085,2.085,0,0,1,.52-.652,1.735,1.735,0,0,1,1.418-.391l.364.031a2.838,2.838,0,0,1,.715.247,2.428,2.428,0,0,1,.714.551,2.093,2.093,0,0,1,.5,1.512,24.341,24.341,0,0,1-.733,4.629c.02.009.042.02.061.031l3.393-6.722c.072-.142.026-.255-.136-.336L52.648,70.01a1.678,1.678,0,0,1-.885-1.041,1.723,1.723,0,0,1,.1-1.34c.072-.142.045-.244-.077-.305L49.2,66.02c-.019-.009-.032-.009-.036,0l-.024.046a1.132,1.132,0,0,1,.47.962,1.185,1.185,0,0,1-.124.547,1.006,1.006,0,0,1-.352.4q-.856.713-1.788,1.425a.15.15,0,0,0-.061.123.133.133,0,0,0,.09.121,1.924,1.924,0,0,1,.846,2.564l-.078.151a1.959,1.959,0,0,1-1.154,1,1.92,1.92,0,0,1-1.547-.112l-2.738-1.381a.209.209,0,0,0-.32.105l-.475.942c-.084.163-.053.279.089.351l2.464,1.244a1.978,1.978,0,0,1,.891,2.7l-.016.03a1.963,1.963,0,0,1-1.154,1,1.92,1.92,0,0,1-1.547-.112l-2.464-1.244a.212.212,0,0,0-.321.105l-.383.761c-.081.162-.047.269.105.32q.166.049,3.819,1.508l.184.093a1.816,1.816,0,0,1,.88.978,1.652,1.652,0,0,1-.05,1.463l-.169.333a2.055,2.055,0,0,1-1.163,1.093,2.225,2.225,0,0,1-1.615.026Q36.5,81.667,29.092,78.809l-.213-.108a2.03,2.03,0,0,1-.927-.964,2.192,2.192,0,0,1-.085-1.57l.231-.609a1.076,1.076,0,0,1,.092-.259,1.909,1.909,0,0,1,2.427-.875q2.142.891,4.138,1.707a.268.268,0,0,0,.351-.167l.552-1.095a.211.211,0,0,0-.1-.321l-2.525-1.274a1.913,1.913,0,0,1-1.01-1.177,1.951,1.951,0,0,1,.12-1.522l.013-.031a1.979,1.979,0,0,1,2.7-.889l2.525,1.274c.142.072.252.027.335-.135l.476-.945a.211.211,0,0,0-.105-.32l-2.921-1.474a1.913,1.913,0,0,1-1.01-1.177,1.963,1.963,0,0,1,.12-1.522l.031-.061a1.961,1.961,0,0,1,1.154-1A1.917,1.917,0,0,1,37,64.407l.092.046a.17.17,0,0,0,.26-.136c.081-.467.15-.98.2-1.539a1.82,1.82,0,0,1,.186-.669,1.726,1.726,0,0,1,.413-.517,1.529,1.529,0,0,1,1.266-.391c.031-.009.046-.04.046-.092l-1.795-.9a1.978,1.978,0,0,1-.889-2.7l.247-.486a1.529,1.529,0,0,1,.893-.79,1.457,1.457,0,0,1,1.181.081c.121.061.2.036.229-.076a17.02,17.02,0,0,0,.362-3.138,1.825,1.825,0,0,1,.2-.776,1.87,1.87,0,0,1,.366-.5,1.762,1.762,0,0,1,1.313-.482,1.9,1.9,0,0,1,.852.2,2.044,2.044,0,0,1,.532.383,1.862,1.862,0,0,1,.6,1.374q-.014.488-.018,1.02c-.011.02,0,.039.03.054s.057,0,.078-.038l.444-.881a1.856,1.856,0,0,1,1.139-.973A1.976,1.976,0,0,1,47.7,53.718a1.85,1.85,0,0,1-.105,1.493l-2.057,4.076a.212.212,0,0,0,.105.321l.426.215a.213.213,0,0,0,.321-.105l2.042-4.046a1.872,1.872,0,0,1,1.159-.978,1.954,1.954,0,0,1,1.524.12,1.975,1.975,0,0,1,.876,2.653l-.938,1.856c-.019.04-.016.069.015.085s.051.012.062-.008q.808-.621,1.634-1.35a2.144,2.144,0,0,1,1.435-.575,2.109,2.109,0,0,1,.884.217,2.229,2.229,0,0,1,.53.383l.426.443a1.436,1.436,0,0,1,.451,1.3,1.836,1.836,0,0,1-.169.563,1.623,1.623,0,0,1-.58.624c-.846.514-1.4.849-1.651,1a2.382,2.382,0,0,1-1.647.314,2.787,2.787,0,0,1-.715-.247,2.311,2.311,0,0,1-.729-.6l-.486-.549a.157.157,0,0,0-.144-.055.166.166,0,0,0-.144.1l-.277.548c-.072.142-.028.254.134.336l2.83,1.427a1.161,1.161,0,0,1,.607.726,1.232,1.232,0,0,1-.078.951c-.043.082-.012.148.089.2l5.6,2.825c.162.081.279.051.35-.09L62.2,62.5a1.978,1.978,0,0,1,2.7-.889l.76.385a1.979,1.979,0,0,1,.892,2.7l-2.718,5.385c-.072.142-.027.254.136.335ZM45.1,68.489a.028.028,0,0,0,.045-.016.028.028,0,0,0-.012-.045,1.547,1.547,0,0,1-.592-1.252,1.672,1.672,0,0,1,.171-.869,1.65,1.65,0,0,1,.352-.47c.366-.374.719-.744,1.055-1.109a.285.285,0,0,0,.023-.159.167.167,0,0,0-.1-.146l-4.107-2.072a.133.133,0,0,0-.161.015.185.185,0,0,0-.069.138,17.481,17.481,0,0,1-.036,1.813,1.784,1.784,0,0,1-.169.564,1.5,1.5,0,0,1-.46.53,1.671,1.671,0,0,1-1.235.331.031.031,0,0,0-.046.016.028.028,0,0,0,.015.045ZM42.351,56.914a.135.135,0,0,0,0-.153.223.223,0,0,0-.151-.077l-2.225-.054a.1.1,0,0,0-.061.046c-.009.02,0,.04.045.062l1.734.873q.243.123.352-.089Z" transform="translate(9.705 17.946)" fill="#fff"/>
    <path id="Path_956" data-name="Path 956" d="M78.411,99.769a1.745,1.745,0,0,1,.9,1.049,1.85,1.85,0,0,1-1.166,2.312,1.74,1.74,0,0,1-1.378-.105l-5.385-2.715a.121.121,0,0,0-.184.059.968.968,0,0,1-.6.517,1.02,1.02,0,0,1-.769-.063l-.76-.385a1.87,1.87,0,0,1-.956-1.093,1.783,1.783,0,0,1,.1-1.44l5.218-10.342a.689.689,0,0,0,.049-.471c-.082-.3-.171-.6-.271-.9a2.34,2.34,0,0,1,.081-1.6,1.08,1.08,0,0,1,.093-.259,2.465,2.465,0,0,1,.916-.988,22.811,22.811,0,0,0,4.433-3.64.186.186,0,0,0,.054-.182.193.193,0,0,0-.082-.138L73.22,76.621a.048.048,0,0,0-.058.008.054.054,0,0,0-.018.069,1.281,1.281,0,0,1-.358,1.993q-1.954,1.154-2.871,1.682a.266.266,0,0,0-.138.35,3.179,3.179,0,0,0,.061.336c.038.171.13.219.274.139.486-.314.93-.587,1.327-.819a2.037,2.037,0,0,1,1.418-.314,1.882,1.882,0,0,1,1.262.75,1.438,1.438,0,0,1,.3,1.3,2.523,2.523,0,0,1-.154.381,1.594,1.594,0,0,1-.688.683q-2.822,1.36-4.822,2.223a.136.136,0,0,0-.061.121.108.108,0,0,0,.059.107l.837.383c.081.042.127.027.139-.045a.748.748,0,0,1,.305-.57.892.892,0,0,1,.641-.173l.5.062a1.279,1.279,0,0,1,.5.139,1.21,1.21,0,0,1,.424.367,1.224,1.224,0,0,1,.286,1.023,23.781,23.781,0,0,1-.418,2.344,1.34,1.34,0,0,1-.124.4,1.6,1.6,0,0,1-.537.607,1.7,1.7,0,0,1-1.189.316l-.776-.049a.544.544,0,0,1-.425-.252.533.533,0,0,1-.059-.526c.022-.04,0-.076-.062-.108l-.41-.169a.249.249,0,0,0-.335.136l-.46.912a.179.179,0,0,0-.008.169.171.171,0,0,0,.143.09l.428.063a2.269,2.269,0,0,1,.624.2,1.847,1.847,0,0,1,.683.613,1.749,1.749,0,0,1,.314,1.5c-.135.669-.273,1.3-.417,1.887a2.352,2.352,0,0,1-.138.351,1.765,1.765,0,0,1-.659.7,1.993,1.993,0,0,1-1.3.3,1.141,1.141,0,0,1-.441-.108,1.344,1.344,0,0,1-.516-.489,1.257,1.257,0,0,1-.131-1.1q.443-1.415.771-2.815c.011-.02.011-.034,0-.039s-.022,0-.03.023L64.679,96.2a1.779,1.779,0,0,1-1.1.933,1.868,1.868,0,0,1-1.447-.119A1.86,1.86,0,0,1,61.3,94.5l2.119-4.2a.031.031,0,0,0-.016-.046.029.029,0,0,0-.045.013,31.279,31.279,0,0,1-2.846,2.611,1.431,1.431,0,0,1-1.265.314,1.324,1.324,0,0,1-.5-.138,1.849,1.849,0,0,1-.638-.551,1.54,1.54,0,0,1-.314-1.266,1.919,1.919,0,0,1,.185-.594,2.1,2.1,0,0,1,.444-.578q.852-.715,1.727-1.609a2.285,2.285,0,0,1,1.435-.651,1.868,1.868,0,0,1,1.05.186,1.708,1.708,0,0,1,.4.277l.8.673c.123.112.224.086.306-.076l.445-.883c.072-.142.024-.254-.138-.336l-.881-.368c-.04-.022-.072-.035-.09-.046a1.858,1.858,0,0,1-.911-.995,1.721,1.721,0,0,1,.005-1.447l.046-.167a1.625,1.625,0,0,1,.947-.9,1.682,1.682,0,0,1,1.31.051.421.421,0,0,0,.379,0,4.639,4.639,0,0,0,.467-.2c.219-.107.394-.189.528-.25a.288.288,0,0,0,.184-.364q-.36-1.786-1.023-3.952a.113.113,0,0,0-.105-.054.117.117,0,0,0-.092.069l-2.977,5.9a1.925,1.925,0,0,1-1.177,1.01,1.966,1.966,0,0,1-1.524-.121L56.919,84.5a.238.238,0,0,0-.364.12l-.107.213a1.98,1.98,0,0,1-2.626.85,1.888,1.888,0,0,1-.97-1.138,1.865,1.865,0,0,1,.1-1.478L62,65.122a2.037,2.037,0,0,1,2.7-.891l4.563,2.3a2.039,2.039,0,0,1,.889,2.7l-4.328,8.579a.076.076,0,0,0,.008.1c.024.027.058.024.1-.008l1.769-.938a.653.653,0,0,1,.551-.028.662.662,0,0,1,.394.352c.018.061.05.077.092.046q1.573-1.229,2.078-1.7c.1-.1.09-.184-.03-.246a1.511,1.511,0,0,1-.663-2.012l2.286-4.533a1.952,1.952,0,0,1,1.153-1,1.923,1.923,0,0,1,1.548.112L89.2,75.065A1.913,1.913,0,0,1,90.2,76.24a1.96,1.96,0,0,1-.119,1.524L88.03,81.84a1.978,1.978,0,0,1-2.7.889l-1.339-.676a.03.03,0,0,0-.045.016.1.1,0,0,0,0,.077l1.169,1.162a1.635,1.635,0,0,1,.528,1.373,1.749,1.749,0,0,1-.675,1.263c-.205.151-.387.287-.551.409a.181.181,0,0,0-.061.161.183.183,0,0,0,.105.128,1.862,1.862,0,0,1,.831,2.517l-.016.031a1.918,1.918,0,0,1-2.563.843l-.4-.2c-.162-.081-.279-.05-.351.09l-.308.61a.212.212,0,0,0,.105.32l.184.092a1.628,1.628,0,0,1,.833.993A1.683,1.683,0,0,1,81.691,94.1a1.626,1.626,0,0,1-1.293-.08l-.184-.093a.21.21,0,0,0-.32.105l-.354.7a.211.211,0,0,0,.105.32l.184.093a1.658,1.658,0,0,1,.841.977,1.686,1.686,0,0,1-1.09,2.161,1.664,1.664,0,0,1-1.286-.1l-.184-.093a.209.209,0,0,0-.318.105l-.383.761a.238.238,0,0,0,.12.364ZM59.525,80.778c.161.081.277.051.35-.092l5.448-10.8a.242.242,0,0,0-.12-.366l-.579-.292a.239.239,0,0,0-.364.12l-5.448,10.8c-.072.142-.03.252.134.335Zm14.206,15.1a.211.211,0,0,0-.32.107l-.383.76c-.084.163-.051.279.09.351l.912.462a.241.241,0,0,0,.366-.121l.383-.761c.07-.14.026-.254-.136-.336Zm2.242-21.765a.242.242,0,0,0,.367-.12l.491-.973c.072-.143.028-.255-.135-.337l-.973-.49a.211.211,0,0,0-.321.105l-.493.974c-.081.162-.051.277.092.35ZM76.179,93.3a.238.238,0,0,0,.364-.12l.337-.669c.072-.142.028-.254-.134-.336l-.912-.459a.211.211,0,0,0-.321.105l-.337.669c-.082.162-.051.278.09.35ZM78.3,89.1c.162.082.278.053.35-.089l.308-.61c.07-.14.027-.254-.135-.335l-.912-.46a.211.211,0,0,0-.321.105l-.308.609a.212.212,0,0,0,.107.32Zm1.935-12.839q.213.109.336-.134l.491-.974a.212.212,0,0,0-.107-.321l-.973-.491c-.161-.081-.279-.051-.351.09l-.491.974a.241.241,0,0,0,.121.366ZM83.5,82.114a.189.189,0,0,0,.053-.184.21.21,0,0,0-.112-.153l-3.163-1.6a.055.055,0,0,0-.062.007c-.02.015-.022.027,0,.038l.441.414a2,2,0,0,1,.636,1.389,1.885,1.885,0,0,1-.2.853,2.3,2.3,0,0,1-.383.53q-.352.318-.764.683a.174.174,0,0,0-.062.161.178.178,0,0,0,.107.13l.7.354a.3.3,0,0,0,.381-.076A33.249,33.249,0,0,0,83.5,82.114m.7-5.636c-.161-.082-.279-.051-.351.09l-.491.974a.24.24,0,0,0,.121.364l1.034.522c.143.072.254.026.335-.136l.493-.973a.21.21,0,0,0-.1-.32Z" transform="translate(18.439 22.381)" fill="#fff"/>
    <path id="Path_957" data-name="Path 957" d="M77.979,101.554a3.479,3.479,0,0,1-1.86-2.178,4.145,4.145,0,0,1,2.471-4.9,3.7,3.7,0,0,1,4.717,2.378,4.138,4.138,0,0,1-2.471,4.9,3.467,3.467,0,0,1-2.857-.2m6.035-8.673a2.124,2.124,0,0,1-1.584-.148,2.068,2.068,0,0,1-1.047-1.178,2.144,2.144,0,0,1,.036-1.584l3.752-9.1,1.443-3.165a1.867,1.867,0,0,1,1.116-1.041,1.894,1.894,0,0,1,1.524.12l1.977,1a1.887,1.887,0,0,1,.985,1.146,1.835,1.835,0,0,1-.157,1.524L90.373,83.5,85.282,91.92a2.089,2.089,0,0,1-1.267.962" transform="translate(26.557 26.766)" fill="#fff"/>
    <path id="Path_958" data-name="Path 958" d="M23.015,127.85,54.8,107.029,20.876,89.913Z" transform="translate(7.299 31.434)" fill="#d13239"/>
  </g>
</svg>
