<svg xmlns="http://www.w3.org/2000/svg" width="149.461" height="161.406" viewBox="0 0 149.461 161.406">
  <path id="rtxt01" d="M192.067,247.687,255.084,232.3,252.3,250.458,189.28,265.839Zm-26.382-7.118-7.161,46.638,120.569-29.431,7.166-46.638Zm46.638-45.58,36.965-9.025,5.866,9.716-51.786,12.639Zm-20.958-9.2-35.253,52.592,31.821-7.766,4.251-6.158L261.9,207.439l2.459,4.522,32.911-8.033-22.46-38.505Zm-8.592-36.919-18.837,39.548,28.544-6.967L199.43,166.5l2.964-.724.691,13.086,26.05-6.36-.693-13.086,7.331-1.79,2.262-14.713-31.041,7.575,4.011-8.509Zm66.757-16.295-18.988,39.585,28.7-7.006,6.954-14.951,3.276-.8.847,13.047,26.828-6.546-.693-13.088,6.863-1.673,2.26-14.715-32.13,7.842,3.853-8.472Z" transform="translate(-156.112 -125.8)" fill="#d23f45"/>
</svg>
