<svg xmlns="http://www.w3.org/2000/svg" width="149.712" height="165.612" viewBox="0 0 149.712 165.612">
  <path id="rtxt05" d="M482.825,134.089l-12.141,79.039-26.2,6.394,9.326-60.725L443.2,161.387l29.914-52.044-19.5,4.761,2.477-16.119,9.359-2.284-1.278-14.15,28.386-6.927,1.122,14.187,9.361-2.286-2.381,15.5ZM494.554,149.6l-2.6,30.614-11.073,2.7,4.017-49.637,11.233-2.741-.42,5.675L588.2,113.64l-2.091,13.615ZM484.1,209.852l2.115-13.773,16.689-4.074-1.233-8.585,25.268-6.167,1.389,8.546,9.359-2.284,4.7-10.033,24.958-6.093-4.384,9.957,16.377-4-2.115,13.775Zm9.32-27.43,4.542-29.58,82.047-20.026-4.544,29.58Zm6.132-51.658,7.883-51.338,19.654-4.8,1.346-8.763,21.682-5.292-1.346,8.763,5.3-1.294,1.346-8.763,21.992-5.37-1.346,8.763,16.845-4.111L585.026,109.9Zm51.667,20.377-28.388,6.93-1.057,6.884,28.388-6.928ZM530.81,104.149l-5.458,1.333-1.01,6.574,5.458-1.333Zm2.763-18-5.456,1.335-.986,6.414,5.458-1.333Zm15.489,13.543-5.616,1.372-1.01,6.574,5.617-1.372Zm2.763-18-5.617,1.369-.984,6.416,5.617-1.369Zm15.487,13.543L561.7,96.611l-1.01,6.574,5.612-1.369Zm2.763-18-5.614,1.369-.984,6.416,5.612-1.369Z" transform="translate(-443.199 -53.91)" fill="#d23f45"/>
</svg>
