<svg xmlns="http://www.w3.org/2000/svg" width="156.603" height="170.185" viewBox="0 0 156.603 170.185">
  <path id="rtxt04" d="M412.9,229.593l-5.952-8.189-9.025,11.844-29.946,7.309L394.735,204.2,382.811,187.98l8.007-52.116-6.4,1.56,2.405-15.649,6.394-1.56L396.2,100.8l24.646-6.013L417.867,114.2l8.733-2.134,2.982-19.409,24.956-6.091-2.979,19.409,6.395-1.56-2.4,15.651-6.395,1.56-8.173,53.212-16.5,22.406L442.385,222.4ZM424.2,127.717l-8.733,2.132-6.9,44.917,3.872,5.079,4.691-6.117Zm74.161,23.474-9.181,59.784L446.593,221.37l-4.147-14.05L461.79,202.6l6.778-44.137-21.528,5.255,2.5-16.275,21.528-5.255,2.6-16.906,14.8-30.878-28.078,6.854,2.429-15.807,61.767-15.077-1.972,12.834-19.951,39.968-1.8,11.738,20.592-5.025-2.5,16.278Z" transform="translate(-367.981 -70.373)" fill="#d23f45"/>
</svg>
