<svg xmlns="http://www.w3.org/2000/svg" width="159.939" height="170.397" viewBox="0 0 159.939 170.397">
  <path id="rtxt02" d="M360.81,242.422l-99.516,24.293-12.7-8.2-3.207,12.08-21.368,5.218,13.857-53.1,21.06-5.14-5.885,22.679,6.082,4.388,5.361-34.9-30.107,7.35,2.284-14.869,70.036-17.1L304.421,200l-14.041,3.428-2.043,13.3,14.2-3.465-2.165,14.085-14.193,3.465-2.524,16.434,85.323-20.826ZM241.686,194.976l8.75-56.969,62.237-15.192-8.75,56.969Zm40.029-29.957-11.543,2.817-1.008,6.574,11.543-2.817Zm3.2-20.817-11.543,2.819-1.01,6.572,11.543-2.817Zm33.868,91.308-25.58,6.243,15.545-23.979,26.048-6.36ZM361.729,125l-3.352,9.1,19.342-4.722-10.889,70.9-61.611,15.038,10.889-70.9,15.129-3.692,3.2-9.066-19.81,4.836,2.26-14.711,67.071-16.371-2.26,14.711ZM344.821,186.22,333.434,189l-.914,5.946,11.387-2.78Zm2.834-18.466-11.387,2.78-.888,5.792,11.387-2.782Zm-3.606,61.587-7.073-18.46,25.582-6.245,7.075,18.462Zm6.371-79.587-11.387,2.78-.891,5.792,11.387-2.78Z" transform="translate(-224.015 -105.417)" fill="#d23f45"/>
</svg>
