<svg xmlns="http://www.w3.org/2000/svg" width="151.445" height="162.895" viewBox="0 0 151.445 162.895">
  <path id="rtxt03" d="M349.566,142.976l-3.677,23.948,10.379-7.957-2.6,16.9-10.379,7.957-9.424,61.351-33.223,8.111-2.709-13.651,10.137-2.475,4.616-30.05-11.207,8.462,2.622-17.062,11.181-8.3,6.2-40.382L311.351,152.3l2.284-14.867,10.137-2.475,3.2-20.817,28.078-6.852-3.2,20.815,9.669-2.36-2.284,14.867Zm-2.594,99L364.065,130.7l29.008-7.081,4.063-26.451L424.9,90.392l-4.061,26.451,28.544-6.966L432.291,221.155Zm36.46-55.6-7.328,1.788-5.218,33.964,7.331-1.788Zm7.309-47.578-7.331,1.788-5,32.555,7.328-1.788Zm27.632,39.049L411.2,179.6l-5.216,33.964,7.174-1.751Zm7.309-47.578-7.174,1.751-5,32.555,7.175-1.753Z" transform="translate(-297.938 -90.392)" fill="#d23f45"/>
</svg>
